G04 #@! TF.GenerationSoftware,KiCad,Pcbnew,5.99.0-unknown-9a82bc3~100~ubuntu18.04.1*
G04 #@! TF.CreationDate,2019-11-27T20:15:30+01:00*
G04 #@! TF.ProjectId,codebagPCB,636f6465-6261-4675-9043-422e6b696361,rev?*
G04 #@! TF.SameCoordinates,Original*
G04 #@! TF.FileFunction,Paste,Top*
G04 #@! TF.FilePolarity,Positive*
%FSLAX46Y46*%
G04 Gerber Fmt 4.6, Leading zero omitted, Abs format (unit mm)*
G04 Created by KiCad (PCBNEW 5.99.0-unknown-9a82bc3~100~ubuntu18.04.1) date 2019-11-27 20:15:30*
%MOMM*%
%LPD*%
G04 APERTURE LIST*
%ADD10R,1.600000X1.600000*%
%ADD11R,1.300000X0.450000*%
G04 APERTURE END LIST*
G36*
X49869671Y-34192030D02*
G01*
X49950777Y-34246223D01*
X50004970Y-34327329D01*
X50024000Y-34423000D01*
X50024000Y-35173000D01*
X50004970Y-35268671D01*
X49950777Y-35349777D01*
X49869671Y-35403970D01*
X49774000Y-35423000D01*
X48524000Y-35423000D01*
X48428329Y-35403970D01*
X48347223Y-35349777D01*
X48293030Y-35268671D01*
X48274000Y-35173000D01*
X48274000Y-34423000D01*
X48293030Y-34327329D01*
X48347223Y-34246223D01*
X48428329Y-34192030D01*
X48524000Y-34173000D01*
X49774000Y-34173000D01*
X49869671Y-34192030D01*
G37*
G36*
X49869671Y-36992030D02*
G01*
X49950777Y-37046223D01*
X50004970Y-37127329D01*
X50024000Y-37223000D01*
X50024000Y-37973000D01*
X50004970Y-38068671D01*
X49950777Y-38149777D01*
X49869671Y-38203970D01*
X49774000Y-38223000D01*
X48524000Y-38223000D01*
X48428329Y-38203970D01*
X48347223Y-38149777D01*
X48293030Y-38068671D01*
X48274000Y-37973000D01*
X48274000Y-37223000D01*
X48293030Y-37127329D01*
X48347223Y-37046223D01*
X48428329Y-36992030D01*
X48524000Y-36973000D01*
X49774000Y-36973000D01*
X49869671Y-36992030D01*
G37*
D10*
X52070000Y-31750000D03*
X85090000Y-39370000D03*
X54610000Y-31750000D03*
X82550000Y-39370000D03*
X57150000Y-31750000D03*
X80010000Y-39370000D03*
X59690000Y-31750000D03*
X77470000Y-39370000D03*
X62230000Y-31750000D03*
X74930000Y-39370000D03*
X64770000Y-31750000D03*
X72390000Y-39370000D03*
X67310000Y-31750000D03*
X69850000Y-39370000D03*
X69850000Y-31750000D03*
X67310000Y-39370000D03*
X72390000Y-31750000D03*
X64770000Y-39370000D03*
X74930000Y-31750000D03*
X62230000Y-39370000D03*
X77470000Y-31750000D03*
X59690000Y-39370000D03*
X80010000Y-31750000D03*
X57150000Y-39370000D03*
X82550000Y-31750000D03*
X54610000Y-39370000D03*
X85090000Y-31750000D03*
X52070000Y-39370000D03*
D11*
X46350000Y-37495000D03*
X46350000Y-36845000D03*
X46350000Y-36195000D03*
X46350000Y-35545000D03*
X46350000Y-34895000D03*
M02*
