G04 #@! TF.GenerationSoftware,KiCad,Pcbnew,5.99.0-unknown-9a82bc3~100~ubuntu18.04.1*
G04 #@! TF.CreationDate,2019-11-27T20:15:30+01:00*
G04 #@! TF.ProjectId,codebagPCB,636f6465-6261-4675-9043-422e6b696361,rev?*
G04 #@! TF.SameCoordinates,Original*
G04 #@! TF.FileFunction,Legend,Bot*
G04 #@! TF.FilePolarity,Positive*
%FSLAX46Y46*%
G04 Gerber Fmt 4.6, Leading zero omitted, Abs format (unit mm)*
G04 Created by KiCad (PCBNEW 5.99.0-unknown-9a82bc3~100~ubuntu18.04.1) date 2019-11-27 20:15:30*
%MOMM*%
%LPD*%
G04 APERTURE LIST*
%ADD10C,0.150000*%
%ADD11C,0.120000*%
G04 APERTURE END LIST*
D10*
X60912833Y-50839714D02*
X60912833Y-51506380D01*
X60674738Y-50458761D02*
X60436642Y-51173047D01*
X61055690Y-51173047D01*
X61341404Y-50506380D02*
X62008071Y-50506380D01*
X61579500Y-51506380D01*
X62436642Y-51458761D02*
X62436642Y-51506380D01*
X62389023Y-51601619D01*
X62341404Y-51649238D01*
X63008071Y-50934952D02*
X62912833Y-50887333D01*
X62865214Y-50839714D01*
X62817595Y-50744476D01*
X62817595Y-50696857D01*
X62865214Y-50601619D01*
X62912833Y-50554000D01*
X63008071Y-50506380D01*
X63198547Y-50506380D01*
X63293785Y-50554000D01*
X63341404Y-50601619D01*
X63389023Y-50696857D01*
X63389023Y-50744476D01*
X63341404Y-50839714D01*
X63293785Y-50887333D01*
X63198547Y-50934952D01*
X63008071Y-50934952D01*
X62912833Y-50982571D01*
X62865214Y-51030190D01*
X62817595Y-51125428D01*
X62817595Y-51315904D01*
X62865214Y-51411142D01*
X62912833Y-51458761D01*
X63008071Y-51506380D01*
X63198547Y-51506380D01*
X63293785Y-51458761D01*
X63341404Y-51411142D01*
X63389023Y-51315904D01*
X63389023Y-51125428D01*
X63341404Y-51030190D01*
X63293785Y-50982571D01*
X63198547Y-50934952D01*
X63722357Y-50506380D02*
X64389023Y-50506380D01*
X63960452Y-51506380D01*
X64817595Y-51506380D02*
X65008071Y-51506380D01*
X65103309Y-51458761D01*
X65150928Y-51411142D01*
X65246166Y-51268285D01*
X65293785Y-51077809D01*
X65293785Y-50696857D01*
X65246166Y-50601619D01*
X65198547Y-50554000D01*
X65103309Y-50506380D01*
X64912833Y-50506380D01*
X64817595Y-50554000D01*
X64769976Y-50601619D01*
X64722357Y-50696857D01*
X64722357Y-50934952D01*
X64769976Y-51030190D01*
X64817595Y-51077809D01*
X64912833Y-51125428D01*
X65103309Y-51125428D01*
X65198547Y-51077809D01*
X65246166Y-51030190D01*
X65293785Y-50934952D01*
X66484261Y-51506380D02*
X66484261Y-50839714D01*
X66484261Y-50934952D02*
X66531880Y-50887333D01*
X66627119Y-50839714D01*
X66769976Y-50839714D01*
X66865214Y-50887333D01*
X66912833Y-50982571D01*
X66912833Y-51506380D01*
X66912833Y-50982571D02*
X66960452Y-50887333D01*
X67055690Y-50839714D01*
X67198547Y-50839714D01*
X67293785Y-50887333D01*
X67341404Y-50982571D01*
X67341404Y-51506380D01*
X67817595Y-51506380D02*
X67817595Y-50839714D01*
X67817595Y-50934952D02*
X67865214Y-50887333D01*
X67960452Y-50839714D01*
X68103309Y-50839714D01*
X68198547Y-50887333D01*
X68246166Y-50982571D01*
X68246166Y-51506380D01*
X68246166Y-50982571D02*
X68293785Y-50887333D01*
X68389023Y-50839714D01*
X68531880Y-50839714D01*
X68627119Y-50887333D01*
X68674738Y-50982571D01*
X68674738Y-51506380D01*
D11*
X40640000Y-49784000D02*
X88519000Y-49784000D01*
X40640000Y-47244000D02*
X40640000Y-50370421D01*
X88519000Y-47244000D02*
X88519000Y-50370421D01*
X88519000Y-49784000D02*
X87392496Y-50370421D01*
X88519000Y-49784000D02*
X87392496Y-49197579D01*
X40640000Y-49784000D02*
X41766504Y-50370421D01*
X40640000Y-49784000D02*
X41766504Y-49197579D01*
D10*
X36012380Y-30909142D02*
X36060000Y-30956761D01*
X36107619Y-31052000D01*
X36107619Y-31290095D01*
X36060000Y-31385333D01*
X36012380Y-31432952D01*
X35917142Y-31480571D01*
X35821904Y-31480571D01*
X35679047Y-31432952D01*
X35107619Y-30861523D01*
X35107619Y-31480571D01*
X35774285Y-32337714D02*
X35107619Y-32337714D01*
X36155238Y-32099619D02*
X35440952Y-31861523D01*
X35440952Y-32480571D01*
X35155238Y-32909142D02*
X35107619Y-32909142D01*
X35012380Y-32861523D01*
X34964761Y-32813904D01*
X36107619Y-33242476D02*
X36107619Y-33861523D01*
X35726666Y-33528190D01*
X35726666Y-33671047D01*
X35679047Y-33766285D01*
X35631428Y-33813904D01*
X35536190Y-33861523D01*
X35298095Y-33861523D01*
X35202857Y-33813904D01*
X35155238Y-33766285D01*
X35107619Y-33671047D01*
X35107619Y-33385333D01*
X35155238Y-33290095D01*
X35202857Y-33242476D01*
X35679047Y-34432952D02*
X35726666Y-34337714D01*
X35774285Y-34290095D01*
X35869523Y-34242476D01*
X35917142Y-34242476D01*
X36012380Y-34290095D01*
X36060000Y-34337714D01*
X36107619Y-34432952D01*
X36107619Y-34623428D01*
X36060000Y-34718666D01*
X36012380Y-34766285D01*
X35917142Y-34813904D01*
X35869523Y-34813904D01*
X35774285Y-34766285D01*
X35726666Y-34718666D01*
X35679047Y-34623428D01*
X35679047Y-34432952D01*
X35631428Y-34337714D01*
X35583809Y-34290095D01*
X35488571Y-34242476D01*
X35298095Y-34242476D01*
X35202857Y-34290095D01*
X35155238Y-34337714D01*
X35107619Y-34432952D01*
X35107619Y-34623428D01*
X35155238Y-34718666D01*
X35202857Y-34766285D01*
X35298095Y-34813904D01*
X35488571Y-34813904D01*
X35583809Y-34766285D01*
X35631428Y-34718666D01*
X35679047Y-34623428D01*
X35774285Y-35671047D02*
X35107619Y-35671047D01*
X36155238Y-35432952D02*
X35440952Y-35194857D01*
X35440952Y-35813904D01*
X35107619Y-36956761D02*
X35774285Y-36956761D01*
X35679047Y-36956761D02*
X35726666Y-37004380D01*
X35774285Y-37099619D01*
X35774285Y-37242476D01*
X35726666Y-37337714D01*
X35631428Y-37385333D01*
X35107619Y-37385333D01*
X35631428Y-37385333D02*
X35726666Y-37432952D01*
X35774285Y-37528190D01*
X35774285Y-37671047D01*
X35726666Y-37766285D01*
X35631428Y-37813904D01*
X35107619Y-37813904D01*
X35107619Y-38290095D02*
X35774285Y-38290095D01*
X35679047Y-38290095D02*
X35726666Y-38337714D01*
X35774285Y-38432952D01*
X35774285Y-38575809D01*
X35726666Y-38671047D01*
X35631428Y-38718666D01*
X35107619Y-38718666D01*
X35631428Y-38718666D02*
X35726666Y-38766285D01*
X35774285Y-38861523D01*
X35774285Y-39004380D01*
X35726666Y-39099619D01*
X35631428Y-39147238D01*
X35107619Y-39147238D01*
D11*
X36830000Y-22860000D02*
X36830000Y-47244000D01*
X40640000Y-22860000D02*
X36243579Y-22860000D01*
X40640000Y-47244000D02*
X36243579Y-47244000D01*
X36830000Y-47244000D02*
X36243579Y-46117496D01*
X36830000Y-47244000D02*
X37416421Y-46117496D01*
X36830000Y-22860000D02*
X36243579Y-23986504D01*
X36830000Y-22860000D02*
X37416421Y-23986504D01*
M02*
