M48
; DRILL file {KiCad 5.99.0-unknown-9a82bc3~100~ubuntu18.04.1} date Mi 27 Nov 2019 20:15:21 CET
; FORMAT={-:-/ absolute / inch / decimal}
; #@! TF.CreationDate,2019-11-27T20:15:21+01:00
; #@! TF.GenerationSoftware,Kicad,Pcbnew,5.99.0-unknown-9a82bc3~100~ubuntu18.04.1
; #@! TF.FileFunction,Plated,1,2,PTH
FMAT,2
INCH
T1C0.0157
T2C0.0315
T3C0.0472
T4C0.0551
T5C0.1378
%
G90
G05
T1
X2.25Y-1.475
X2.65Y-1.375
X2.75Y-1.475
T2
X3.05Y-1.15
X3.2Y-1.15
X2.6Y-0.95
X2.75Y-0.95
X2.75Y-1.05
X2.6Y-1.15
X2.6Y-1.05
X3.05Y-0.95
X3.2Y-1.05
X2.9Y-1.15
X3.2Y-0.95
X2.9Y-1.05
X2.75Y-1.15
X3.05Y-1.05
X3.35Y-0.95
X3.35Y-1.05
X3.35Y-1.15
X2.9Y-0.95
T3
X1.6732Y-1.2724
X1.6732Y-1.5776
T4
X1.8228Y-1.2783
X1.8228Y-1.5717
T5
X1.8Y-1.05
X2.725Y-1.75
X2.425Y-1.75
X2.1Y-1.05
X3.0Y-1.75
X2.4Y-1.05
X3.3Y-1.75
X2.125Y-1.75
T0
M30
