G04 #@! TF.GenerationSoftware,KiCad,Pcbnew,5.99.0-unknown-9a82bc3~100~ubuntu18.04.1*
G04 #@! TF.CreationDate,2019-11-27T20:15:30+01:00*
G04 #@! TF.ProjectId,codebagPCB,636f6465-6261-4675-9043-422e6b696361,rev?*
G04 #@! TF.SameCoordinates,Original*
G04 #@! TF.FileFunction,Soldermask,Bot*
G04 #@! TF.FilePolarity,Negative*
%FSLAX46Y46*%
G04 Gerber Fmt 4.6, Leading zero omitted, Abs format (unit mm)*
G04 Created by KiCad (PCBNEW 5.99.0-unknown-9a82bc3~100~ubuntu18.04.1) date 2019-11-27 20:15:30*
%MOMM*%
%LPD*%
G04 APERTURE LIST*
G04 APERTURE END LIST*
G36*
X71734899Y-41901959D02*
G01*
X71751769Y-41913231D01*
X71763041Y-41930101D01*
X71769448Y-41962312D01*
X71769448Y-46937688D01*
X71766999Y-46950000D01*
X71763041Y-46969899D01*
X71751769Y-46986769D01*
X71734899Y-46998041D01*
X71715000Y-47001999D01*
X71702688Y-47004448D01*
X66727312Y-47004448D01*
X66695101Y-46998041D01*
X66678231Y-46986769D01*
X66666959Y-46969899D01*
X66660552Y-46937688D01*
X66660552Y-41962312D01*
X66666959Y-41930101D01*
X66678231Y-41913231D01*
X66695101Y-41901959D01*
X66727312Y-41895552D01*
X71702688Y-41895552D01*
X71734899Y-41901959D01*
G37*
G36*
X64114899Y-41901959D02*
G01*
X64131769Y-41913231D01*
X64143041Y-41930101D01*
X64149448Y-41962312D01*
X64149448Y-46937688D01*
X64146999Y-46950000D01*
X64143041Y-46969899D01*
X64131769Y-46986769D01*
X64114899Y-46998041D01*
X64095000Y-47001999D01*
X64082688Y-47004448D01*
X59107312Y-47004448D01*
X59075101Y-46998041D01*
X59058231Y-46986769D01*
X59046959Y-46969899D01*
X59040552Y-46937688D01*
X59040552Y-41962312D01*
X59046959Y-41930101D01*
X59058231Y-41913231D01*
X59075101Y-41901959D01*
X59107312Y-41895552D01*
X64082688Y-41895552D01*
X64114899Y-41901959D01*
G37*
G36*
X56494899Y-41901959D02*
G01*
X56511769Y-41913231D01*
X56523041Y-41930101D01*
X56529448Y-41962312D01*
X56529448Y-46937688D01*
X56526999Y-46950000D01*
X56523041Y-46969899D01*
X56511769Y-46986769D01*
X56494899Y-46998041D01*
X56475000Y-47001999D01*
X56462688Y-47004448D01*
X51487312Y-47004448D01*
X51455101Y-46998041D01*
X51438231Y-46986769D01*
X51426959Y-46969899D01*
X51420552Y-46937688D01*
X51420552Y-41962312D01*
X51426959Y-41930101D01*
X51438231Y-41913231D01*
X51455101Y-41901959D01*
X51487312Y-41895552D01*
X56462688Y-41895552D01*
X56494899Y-41901959D01*
G37*
G36*
X86339899Y-41901959D02*
G01*
X86356769Y-41913231D01*
X86368041Y-41930101D01*
X86374448Y-41962312D01*
X86374448Y-46937688D01*
X86371999Y-46950000D01*
X86368041Y-46969899D01*
X86356769Y-46986769D01*
X86339899Y-46998041D01*
X86320000Y-47001999D01*
X86307688Y-47004448D01*
X81332312Y-47004448D01*
X81300101Y-46998041D01*
X81283231Y-46986769D01*
X81271959Y-46969899D01*
X81265552Y-46937688D01*
X81265552Y-41962312D01*
X81271959Y-41930101D01*
X81283231Y-41913231D01*
X81300101Y-41901959D01*
X81332312Y-41895552D01*
X86307688Y-41895552D01*
X86339899Y-41901959D01*
G37*
G36*
X78719899Y-41901959D02*
G01*
X78736769Y-41913231D01*
X78748041Y-41930101D01*
X78754448Y-41962312D01*
X78754448Y-46937688D01*
X78751999Y-46950000D01*
X78748041Y-46969899D01*
X78736769Y-46986769D01*
X78719899Y-46998041D01*
X78700000Y-47001999D01*
X78687688Y-47004448D01*
X73712312Y-47004448D01*
X73680101Y-46998041D01*
X73663231Y-46986769D01*
X73651959Y-46969899D01*
X73645552Y-46937688D01*
X73645552Y-41962312D01*
X73651959Y-41930101D01*
X73663231Y-41913231D01*
X73680101Y-41901959D01*
X73712312Y-41895552D01*
X78687688Y-41895552D01*
X78719899Y-41901959D01*
G37*
G36*
X42596675Y-39122627D02*
G01*
X42637905Y-39124680D01*
X42686080Y-39136468D01*
X42740954Y-39144963D01*
X42779728Y-39159383D01*
X42814176Y-39167812D01*
X42864544Y-39190925D01*
X42922037Y-39212307D01*
X42952173Y-39231138D01*
X42979107Y-39243498D01*
X43028922Y-39279097D01*
X43085880Y-39314688D01*
X43107387Y-39335168D01*
X43126749Y-39349005D01*
X43172931Y-39397585D01*
X43225790Y-39447922D01*
X43239404Y-39467511D01*
X43251782Y-39480531D01*
X43291083Y-39541866D01*
X43336052Y-39606569D01*
X43343145Y-39623119D01*
X43349683Y-39633322D01*
X43378818Y-39706349D01*
X43412162Y-39784146D01*
X43414606Y-39796051D01*
X43416928Y-39801872D01*
X43432813Y-39884748D01*
X43451010Y-39973400D01*
X43450988Y-39979580D01*
X43451056Y-39979932D01*
X43450404Y-40166704D01*
X43450335Y-40167053D01*
X43450313Y-40173237D01*
X43431491Y-40261785D01*
X43415034Y-40344522D01*
X43412671Y-40350327D01*
X43410144Y-40362215D01*
X43376246Y-40439806D01*
X43346613Y-40512599D01*
X43340009Y-40522748D01*
X43332797Y-40539257D01*
X43287357Y-40603672D01*
X43247645Y-40664707D01*
X43235180Y-40677637D01*
X43221430Y-40697129D01*
X43168221Y-40747096D01*
X43121704Y-40795349D01*
X43102248Y-40809048D01*
X43080593Y-40829384D01*
X43023380Y-40864582D01*
X42973323Y-40899828D01*
X42946302Y-40912000D01*
X42916039Y-40930618D01*
X42858399Y-40951597D01*
X42807868Y-40974360D01*
X42773362Y-40982549D01*
X42734490Y-40996697D01*
X42679568Y-41004807D01*
X42631307Y-41016260D01*
X42590057Y-41018025D01*
X42543363Y-41024920D01*
X42493741Y-41022146D01*
X42450000Y-41024017D01*
X42403403Y-41017095D01*
X42350464Y-41014135D01*
X42308057Y-41002931D01*
X42270504Y-40997352D01*
X42220566Y-40979815D01*
X42163673Y-40964783D01*
X42129600Y-40947869D01*
X42099288Y-40937224D01*
X42048557Y-40907639D01*
X41990621Y-40878879D01*
X41965245Y-40859053D01*
X41942528Y-40845805D01*
X41893930Y-40803335D01*
X41838378Y-40759933D01*
X41821292Y-40739857D01*
X41805884Y-40726392D01*
X41762628Y-40670928D01*
X41713161Y-40612804D01*
X41703277Y-40594825D01*
X41694285Y-40583295D01*
X41659661Y-40515488D01*
X41620086Y-40443501D01*
X41615749Y-40429492D01*
X41611760Y-40421679D01*
X41588983Y-40343022D01*
X41562955Y-40258941D01*
X41562095Y-40250173D01*
X41561285Y-40247375D01*
X41553295Y-40160423D01*
X41544102Y-40066663D01*
X41553949Y-39972976D01*
X41562546Y-39886079D01*
X41563376Y-39883287D01*
X41564297Y-39874521D01*
X41590920Y-39790594D01*
X41614237Y-39712129D01*
X41618280Y-39704346D01*
X41622715Y-39690365D01*
X41662811Y-39618621D01*
X41697891Y-39551090D01*
X41706956Y-39539632D01*
X41716969Y-39521716D01*
X41766849Y-39463930D01*
X41810484Y-39408776D01*
X41825984Y-39395420D01*
X41843210Y-39375464D01*
X41899069Y-39332447D01*
X41947959Y-39290321D01*
X41970768Y-39277232D01*
X41996281Y-39257584D01*
X42054401Y-39229237D01*
X42105350Y-39199999D01*
X42135746Y-39189562D01*
X42169928Y-39172891D01*
X42226921Y-39158258D01*
X42276983Y-39141069D01*
X42314572Y-39135753D01*
X42357059Y-39124844D01*
X42410020Y-39122254D01*
X42456663Y-39115657D01*
X42500388Y-39117834D01*
X42550028Y-39115406D01*
X42596675Y-39122627D01*
G37*
G36*
X45268236Y-38244000D02*
G01*
X45309373Y-38244000D01*
X45326751Y-38248656D01*
X45353374Y-38250775D01*
X45392256Y-38266209D01*
X45424080Y-38274736D01*
X45446834Y-38287873D01*
X45479424Y-38300809D01*
X45505527Y-38321759D01*
X45526920Y-38334110D01*
X45551328Y-38358518D01*
X45585190Y-38385695D01*
X45599287Y-38406477D01*
X45610890Y-38418080D01*
X45632231Y-38455044D01*
X45661320Y-38497928D01*
X45666227Y-38513927D01*
X45670264Y-38520920D01*
X45683357Y-38569784D01*
X45701084Y-38627585D01*
X45701000Y-38637212D01*
X45701000Y-38754377D01*
X45699943Y-38758320D01*
X45699839Y-38770277D01*
X45683073Y-38821725D01*
X45684738Y-38891728D01*
X45724215Y-38950057D01*
X45788961Y-38977784D01*
X45851886Y-38967462D01*
X45876316Y-38957591D01*
X45935532Y-38929410D01*
X45966596Y-38921116D01*
X46001823Y-38906883D01*
X46065128Y-38894807D01*
X46122159Y-38879579D01*
X46160663Y-38876582D01*
X46204284Y-38868261D01*
X46262370Y-38868667D01*
X46314735Y-38864591D01*
X46359591Y-38869345D01*
X46410391Y-38869700D01*
X46461051Y-38880099D01*
X46506828Y-38884951D01*
X46556287Y-38899648D01*
X46612293Y-38911145D01*
X46654069Y-38928706D01*
X46691981Y-38939972D01*
X46743722Y-38966392D01*
X46802300Y-38991016D01*
X46834564Y-39012779D01*
X46864015Y-39027817D01*
X46915254Y-39067205D01*
X46973174Y-39106273D01*
X46996070Y-39129330D01*
X47017158Y-39145540D01*
X47064764Y-39198504D01*
X47118407Y-39252523D01*
X47132831Y-39274233D01*
X47146284Y-39289200D01*
X47186922Y-39355646D01*
X47232468Y-39424198D01*
X47239950Y-39442350D01*
X47247065Y-39453984D01*
X47277378Y-39533158D01*
X47311011Y-39614758D01*
X47313572Y-39627693D01*
X47316132Y-39634379D01*
X47332931Y-39725461D01*
X47351045Y-39816944D01*
X47347757Y-40052363D01*
X47344234Y-40067869D01*
X47344069Y-40073973D01*
X47322745Y-40162453D01*
X47302094Y-40253352D01*
X47299358Y-40259497D01*
X47299199Y-40260157D01*
X47241914Y-40388518D01*
X47218261Y-40441645D01*
X47164257Y-40518200D01*
X47110932Y-40595643D01*
X47106520Y-40600048D01*
X47099451Y-40610068D01*
X47034969Y-40671474D01*
X46974227Y-40732109D01*
X46963742Y-40739302D01*
X46950191Y-40752206D01*
X46879960Y-40796776D01*
X46814942Y-40841378D01*
X46797400Y-40849170D01*
X46776165Y-40862646D01*
X46704347Y-40890503D01*
X46638410Y-40919791D01*
X46613446Y-40925761D01*
X46584002Y-40937182D01*
X46514304Y-40949471D01*
X46450543Y-40964720D01*
X46418438Y-40966375D01*
X46381022Y-40972972D01*
X46316608Y-40971623D01*
X46257641Y-40974662D01*
X46219342Y-40969586D01*
X46174955Y-40968656D01*
X46118223Y-40956183D01*
X46066152Y-40949281D01*
X46023267Y-40935306D01*
X45973652Y-40924397D01*
X45926265Y-40903694D01*
X45882498Y-40889431D01*
X45837176Y-40864772D01*
X45784779Y-40841880D01*
X45747565Y-40816016D01*
X45712825Y-40797114D01*
X45667703Y-40760510D01*
X45615530Y-40724249D01*
X45588502Y-40696260D01*
X45562814Y-40675422D01*
X45520877Y-40626233D01*
X45472353Y-40575985D01*
X45454751Y-40548672D01*
X45437495Y-40528432D01*
X45401942Y-40466728D01*
X45360701Y-40402734D01*
X45351105Y-40378498D01*
X45341060Y-40361064D01*
X45315127Y-40287628D01*
X45284826Y-40211096D01*
X45281282Y-40191785D01*
X45276739Y-40178921D01*
X45263546Y-40095152D01*
X45247619Y-40008371D01*
X45247803Y-39995188D01*
X45246689Y-39988114D01*
X45249196Y-39895460D01*
X45250497Y-39802279D01*
X45251895Y-39795703D01*
X45251913Y-39795026D01*
X45281406Y-39656863D01*
X45293350Y-39600672D01*
X45330227Y-39514632D01*
X45366313Y-39427727D01*
X45369715Y-39422498D01*
X45374546Y-39411227D01*
X45423969Y-39339047D01*
X45444155Y-39271703D01*
X45424693Y-39204013D01*
X45371724Y-39157590D01*
X45319158Y-39146000D01*
X45264379Y-39146000D01*
X45210249Y-39149358D01*
X45196315Y-39146000D01*
X45190627Y-39146000D01*
X45139766Y-39132372D01*
X45078406Y-39117584D01*
X45020311Y-39083158D01*
X44973080Y-39055890D01*
X44971315Y-39054125D01*
X44961735Y-39048448D01*
X44923064Y-39005874D01*
X44889110Y-38971920D01*
X44883680Y-38962515D01*
X44870551Y-38948061D01*
X44849723Y-38903698D01*
X44829736Y-38869080D01*
X44824773Y-38850557D01*
X44812915Y-38825301D01*
X44807225Y-38785067D01*
X44799000Y-38754373D01*
X44799000Y-38726916D01*
X44793923Y-38691020D01*
X44799000Y-38659145D01*
X44799000Y-38635627D01*
X44808236Y-38601158D01*
X44815255Y-38557091D01*
X44825797Y-38535619D01*
X44829736Y-38520920D01*
X44851651Y-38482961D01*
X44875025Y-38435355D01*
X44885669Y-38424040D01*
X44889110Y-38418080D01*
X44925635Y-38381555D01*
X44967948Y-38336575D01*
X45029354Y-38301621D01*
X45075920Y-38274736D01*
X45077173Y-38274400D01*
X45085808Y-38269485D01*
X45143180Y-38256713D01*
X45190627Y-38244000D01*
X45200292Y-38244000D01*
X45218184Y-38240017D01*
X45268236Y-38244000D01*
G37*
G36*
X46359591Y-31419345D02*
G01*
X46410391Y-31419700D01*
X46461051Y-31430099D01*
X46506828Y-31434951D01*
X46556287Y-31449648D01*
X46612293Y-31461145D01*
X46654069Y-31478706D01*
X46691981Y-31489972D01*
X46743722Y-31516392D01*
X46802300Y-31541016D01*
X46834564Y-31562779D01*
X46864015Y-31577817D01*
X46915254Y-31617205D01*
X46973174Y-31656273D01*
X46996070Y-31679330D01*
X47017158Y-31695540D01*
X47064764Y-31748504D01*
X47118407Y-31802523D01*
X47132831Y-31824233D01*
X47146284Y-31839200D01*
X47186922Y-31905646D01*
X47232468Y-31974198D01*
X47239950Y-31992350D01*
X47247065Y-32003984D01*
X47277378Y-32083158D01*
X47311011Y-32164758D01*
X47313572Y-32177693D01*
X47316132Y-32184379D01*
X47332931Y-32275461D01*
X47351045Y-32366944D01*
X47347757Y-32602363D01*
X47344234Y-32617869D01*
X47344069Y-32623973D01*
X47322745Y-32712453D01*
X47302094Y-32803352D01*
X47299358Y-32809497D01*
X47299199Y-32810157D01*
X47241914Y-32938518D01*
X47218261Y-32991645D01*
X47164257Y-33068200D01*
X47110932Y-33145643D01*
X47106520Y-33150048D01*
X47099451Y-33160068D01*
X47034969Y-33221474D01*
X46974227Y-33282109D01*
X46963742Y-33289302D01*
X46950191Y-33302206D01*
X46879960Y-33346776D01*
X46814942Y-33391378D01*
X46797400Y-33399170D01*
X46776165Y-33412646D01*
X46704347Y-33440503D01*
X46638410Y-33469791D01*
X46613446Y-33475761D01*
X46584002Y-33487182D01*
X46514304Y-33499471D01*
X46450543Y-33514720D01*
X46418438Y-33516375D01*
X46381022Y-33522972D01*
X46316608Y-33521623D01*
X46257641Y-33524662D01*
X46219342Y-33519586D01*
X46174955Y-33518656D01*
X46118223Y-33506183D01*
X46066152Y-33499281D01*
X46023267Y-33485306D01*
X45973652Y-33474397D01*
X45926265Y-33453694D01*
X45882501Y-33439432D01*
X45864355Y-33429559D01*
X45795510Y-33414691D01*
X45729555Y-33439403D01*
X45687431Y-33495851D01*
X45683884Y-33571501D01*
X45701084Y-33627585D01*
X45701000Y-33637212D01*
X45701000Y-33754373D01*
X45699943Y-33758316D01*
X45699839Y-33770277D01*
X45682399Y-33823793D01*
X45670264Y-33869080D01*
X45664240Y-33879514D01*
X45657818Y-33899220D01*
X45630296Y-33938308D01*
X45610890Y-33971920D01*
X45596489Y-33986321D01*
X45579741Y-34010107D01*
X45548559Y-34034251D01*
X45526920Y-34055890D01*
X45502121Y-34070208D01*
X45472510Y-34093135D01*
X45443421Y-34104098D01*
X45424080Y-34115264D01*
X45388481Y-34124803D01*
X45345606Y-34140961D01*
X45322928Y-34142368D01*
X45309373Y-34146000D01*
X45264379Y-34146000D01*
X45210249Y-34149358D01*
X45196315Y-34146000D01*
X45190627Y-34146000D01*
X45139766Y-34132372D01*
X45078406Y-34117584D01*
X45020311Y-34083158D01*
X44973080Y-34055890D01*
X44971315Y-34054125D01*
X44961735Y-34048448D01*
X44923064Y-34005874D01*
X44889110Y-33971920D01*
X44883680Y-33962515D01*
X44870551Y-33948061D01*
X44849723Y-33903698D01*
X44829736Y-33869080D01*
X44824773Y-33850557D01*
X44812915Y-33825301D01*
X44807225Y-33785067D01*
X44799000Y-33754373D01*
X44799000Y-33726916D01*
X44793923Y-33691020D01*
X44799000Y-33659145D01*
X44799000Y-33635627D01*
X44808236Y-33601158D01*
X44815255Y-33557091D01*
X44825797Y-33535619D01*
X44829736Y-33520920D01*
X44851651Y-33482961D01*
X44875025Y-33435355D01*
X44885669Y-33424040D01*
X44889110Y-33418080D01*
X44925635Y-33381555D01*
X44967948Y-33336575D01*
X45029354Y-33301621D01*
X45075920Y-33274736D01*
X45077173Y-33274400D01*
X45085808Y-33269485D01*
X45143180Y-33256713D01*
X45190627Y-33244000D01*
X45200292Y-33244000D01*
X45218184Y-33240017D01*
X45268236Y-33244000D01*
X45316607Y-33244000D01*
X45384187Y-33224157D01*
X45430310Y-33170927D01*
X45440334Y-33101212D01*
X45424914Y-33056596D01*
X45401946Y-33016734D01*
X45360701Y-32952734D01*
X45351105Y-32928498D01*
X45341060Y-32911064D01*
X45315127Y-32837628D01*
X45284826Y-32761096D01*
X45281282Y-32741785D01*
X45276739Y-32728921D01*
X45263546Y-32645152D01*
X45247619Y-32558371D01*
X45247803Y-32545188D01*
X45246689Y-32538114D01*
X45249196Y-32445460D01*
X45250497Y-32352279D01*
X45251895Y-32345703D01*
X45251913Y-32345026D01*
X45281406Y-32206863D01*
X45293350Y-32150672D01*
X45330226Y-32064635D01*
X45366315Y-31977722D01*
X45369718Y-31972492D01*
X45374546Y-31961227D01*
X45424828Y-31887791D01*
X45471658Y-31815818D01*
X45480423Y-31806598D01*
X45490992Y-31791162D01*
X45550409Y-31732977D01*
X45604745Y-31675818D01*
X45620286Y-31664547D01*
X45638253Y-31646953D01*
X45702701Y-31604780D01*
X45761118Y-31562415D01*
X45784301Y-31551382D01*
X45810720Y-31534094D01*
X45876316Y-31507591D01*
X45935532Y-31479410D01*
X45966596Y-31471116D01*
X46001823Y-31456883D01*
X46065128Y-31444807D01*
X46122159Y-31429579D01*
X46160663Y-31426582D01*
X46204284Y-31418261D01*
X46262370Y-31418667D01*
X46314735Y-31414591D01*
X46359591Y-31419345D01*
G37*
G36*
X42596675Y-31372627D02*
G01*
X42637905Y-31374680D01*
X42686080Y-31386468D01*
X42740954Y-31394963D01*
X42779728Y-31409383D01*
X42814176Y-31417812D01*
X42864544Y-31440925D01*
X42922037Y-31462307D01*
X42952173Y-31481138D01*
X42979107Y-31493498D01*
X43028922Y-31529097D01*
X43085880Y-31564688D01*
X43107387Y-31585168D01*
X43126749Y-31599005D01*
X43172931Y-31647585D01*
X43225790Y-31697922D01*
X43239404Y-31717511D01*
X43251782Y-31730531D01*
X43291083Y-31791866D01*
X43336052Y-31856569D01*
X43343145Y-31873119D01*
X43349683Y-31883322D01*
X43378818Y-31956349D01*
X43412162Y-32034146D01*
X43414606Y-32046051D01*
X43416928Y-32051872D01*
X43432813Y-32134748D01*
X43451010Y-32223400D01*
X43450988Y-32229580D01*
X43451056Y-32229932D01*
X43450404Y-32416704D01*
X43450335Y-32417053D01*
X43450313Y-32423237D01*
X43431491Y-32511785D01*
X43415034Y-32594522D01*
X43412671Y-32600327D01*
X43410144Y-32612215D01*
X43376246Y-32689806D01*
X43346613Y-32762599D01*
X43340009Y-32772748D01*
X43332797Y-32789257D01*
X43287357Y-32853672D01*
X43247645Y-32914707D01*
X43235180Y-32927637D01*
X43221430Y-32947129D01*
X43168221Y-32997096D01*
X43121704Y-33045349D01*
X43102248Y-33059048D01*
X43080593Y-33079384D01*
X43023380Y-33114582D01*
X42973323Y-33149828D01*
X42946302Y-33162000D01*
X42916039Y-33180618D01*
X42858399Y-33201597D01*
X42807868Y-33224360D01*
X42773362Y-33232549D01*
X42734490Y-33246697D01*
X42679568Y-33254807D01*
X42631307Y-33266260D01*
X42590057Y-33268025D01*
X42543363Y-33274920D01*
X42493741Y-33272146D01*
X42450000Y-33274017D01*
X42403403Y-33267095D01*
X42350464Y-33264135D01*
X42308057Y-33252931D01*
X42270504Y-33247352D01*
X42220566Y-33229815D01*
X42163673Y-33214783D01*
X42129600Y-33197869D01*
X42099288Y-33187224D01*
X42048557Y-33157639D01*
X41990621Y-33128879D01*
X41965245Y-33109053D01*
X41942528Y-33095805D01*
X41893930Y-33053335D01*
X41838378Y-33009933D01*
X41821292Y-32989857D01*
X41805884Y-32976392D01*
X41762628Y-32920928D01*
X41713161Y-32862804D01*
X41703277Y-32844825D01*
X41694285Y-32833295D01*
X41659661Y-32765488D01*
X41620086Y-32693501D01*
X41615749Y-32679492D01*
X41611760Y-32671679D01*
X41588983Y-32593022D01*
X41562955Y-32508941D01*
X41562095Y-32500173D01*
X41561285Y-32497375D01*
X41553295Y-32410423D01*
X41544102Y-32316663D01*
X41553949Y-32222976D01*
X41562546Y-32136079D01*
X41563376Y-32133287D01*
X41564297Y-32124521D01*
X41590920Y-32040594D01*
X41614237Y-31962129D01*
X41618280Y-31954346D01*
X41622715Y-31940365D01*
X41662811Y-31868621D01*
X41697891Y-31801090D01*
X41706956Y-31789632D01*
X41716969Y-31771716D01*
X41766849Y-31713930D01*
X41810484Y-31658776D01*
X41825984Y-31645420D01*
X41843210Y-31625464D01*
X41899069Y-31582447D01*
X41947959Y-31540321D01*
X41970768Y-31527232D01*
X41996281Y-31507584D01*
X42054401Y-31479237D01*
X42105350Y-31449999D01*
X42135746Y-31439562D01*
X42169928Y-31422891D01*
X42226921Y-31408258D01*
X42276983Y-31391069D01*
X42314572Y-31385753D01*
X42357059Y-31374844D01*
X42410020Y-31372254D01*
X42456663Y-31365657D01*
X42500388Y-31367834D01*
X42550028Y-31365406D01*
X42596675Y-31372627D01*
G37*
G36*
X85627270Y-28376707D02*
G01*
X85751689Y-28395968D01*
X85756690Y-28398132D01*
X85765865Y-28399651D01*
X85838903Y-28433709D01*
X85907312Y-28463313D01*
X85917129Y-28470187D01*
X85933440Y-28477793D01*
X85992726Y-28523121D01*
X86048929Y-28562474D01*
X86061276Y-28575530D01*
X86080327Y-28590096D01*
X86124657Y-28642554D01*
X86167715Y-28688086D01*
X86180335Y-28708439D01*
X86199671Y-28731321D01*
X86228930Y-28786816D01*
X86258819Y-28835022D01*
X86269150Y-28863099D01*
X86285905Y-28894879D01*
X86300983Y-28949619D01*
X86318516Y-28997272D01*
X86323882Y-29032753D01*
X86335006Y-29073139D01*
X86337666Y-29123903D01*
X86344368Y-29168216D01*
X86342178Y-29209995D01*
X86344683Y-29257784D01*
X86337354Y-29302056D01*
X86335320Y-29340863D01*
X86323272Y-29387117D01*
X86314484Y-29440200D01*
X86300035Y-29476325D01*
X86291741Y-29508167D01*
X86268009Y-29556396D01*
X86245819Y-29611876D01*
X86227303Y-29639121D01*
X86215413Y-29663285D01*
X86178825Y-29710454D01*
X86141890Y-29764802D01*
X86122296Y-29783332D01*
X86109447Y-29799896D01*
X86059605Y-29842616D01*
X86007548Y-29891844D01*
X85989557Y-29902654D01*
X85978185Y-29912401D01*
X85915589Y-29947098D01*
X85849059Y-29987074D01*
X85834838Y-29991860D01*
X85826972Y-29996220D01*
X85752991Y-30019404D01*
X85673817Y-30046049D01*
X85664863Y-30047022D01*
X85662000Y-30047919D01*
X85578954Y-30056354D01*
X85536191Y-30061000D01*
X84659689Y-30061000D01*
X84552730Y-30043293D01*
X84428311Y-30024032D01*
X84423310Y-30021868D01*
X84414135Y-30020349D01*
X84341097Y-29986291D01*
X84272688Y-29956687D01*
X84262871Y-29949813D01*
X84246560Y-29942207D01*
X84187274Y-29896879D01*
X84131071Y-29857526D01*
X84118724Y-29844470D01*
X84099673Y-29829904D01*
X84055343Y-29777446D01*
X84012285Y-29731914D01*
X83999665Y-29711561D01*
X83980329Y-29688679D01*
X83951070Y-29633184D01*
X83921181Y-29584978D01*
X83910850Y-29556901D01*
X83894095Y-29525121D01*
X83879017Y-29470381D01*
X83861484Y-29422728D01*
X83856118Y-29387247D01*
X83844994Y-29346861D01*
X83842334Y-29296097D01*
X83835632Y-29251784D01*
X83837822Y-29210005D01*
X83835317Y-29162216D01*
X83842646Y-29117944D01*
X83844680Y-29079137D01*
X83856728Y-29032883D01*
X83865516Y-28979800D01*
X83879965Y-28943675D01*
X83888259Y-28911833D01*
X83911991Y-28863604D01*
X83934181Y-28808124D01*
X83952697Y-28780879D01*
X83964587Y-28756715D01*
X84001175Y-28709546D01*
X84038110Y-28655198D01*
X84057704Y-28636668D01*
X84070553Y-28620104D01*
X84120395Y-28577384D01*
X84172452Y-28528156D01*
X84190443Y-28517346D01*
X84201815Y-28507599D01*
X84264411Y-28472902D01*
X84330941Y-28432926D01*
X84345162Y-28428140D01*
X84353028Y-28423780D01*
X84427009Y-28400596D01*
X84506183Y-28373951D01*
X84515137Y-28372978D01*
X84518000Y-28372081D01*
X84601046Y-28363646D01*
X84643809Y-28359000D01*
X85520311Y-28359000D01*
X85627270Y-28376707D01*
G37*
G36*
X78007270Y-28376707D02*
G01*
X78131689Y-28395968D01*
X78136690Y-28398132D01*
X78145865Y-28399651D01*
X78218903Y-28433709D01*
X78287312Y-28463313D01*
X78297129Y-28470187D01*
X78313440Y-28477793D01*
X78372726Y-28523121D01*
X78428929Y-28562474D01*
X78441276Y-28575530D01*
X78460327Y-28590096D01*
X78504657Y-28642554D01*
X78547715Y-28688086D01*
X78560335Y-28708439D01*
X78579671Y-28731321D01*
X78608930Y-28786816D01*
X78638819Y-28835022D01*
X78649150Y-28863099D01*
X78665905Y-28894879D01*
X78680983Y-28949619D01*
X78698516Y-28997272D01*
X78703882Y-29032753D01*
X78715006Y-29073139D01*
X78717666Y-29123903D01*
X78724368Y-29168216D01*
X78722178Y-29209995D01*
X78724683Y-29257784D01*
X78717354Y-29302056D01*
X78715320Y-29340863D01*
X78703272Y-29387117D01*
X78694484Y-29440200D01*
X78680035Y-29476325D01*
X78671741Y-29508167D01*
X78648009Y-29556396D01*
X78625819Y-29611876D01*
X78607303Y-29639121D01*
X78595413Y-29663285D01*
X78558825Y-29710454D01*
X78521890Y-29764802D01*
X78502296Y-29783332D01*
X78489447Y-29799896D01*
X78439605Y-29842616D01*
X78387548Y-29891844D01*
X78369557Y-29902654D01*
X78358185Y-29912401D01*
X78295589Y-29947098D01*
X78229059Y-29987074D01*
X78214838Y-29991860D01*
X78206972Y-29996220D01*
X78132991Y-30019404D01*
X78053817Y-30046049D01*
X78044863Y-30047022D01*
X78042000Y-30047919D01*
X77958954Y-30056354D01*
X77916191Y-30061000D01*
X77039689Y-30061000D01*
X76932730Y-30043293D01*
X76808311Y-30024032D01*
X76803310Y-30021868D01*
X76794135Y-30020349D01*
X76721097Y-29986291D01*
X76652688Y-29956687D01*
X76642871Y-29949813D01*
X76626560Y-29942207D01*
X76567274Y-29896879D01*
X76511071Y-29857526D01*
X76498724Y-29844470D01*
X76479673Y-29829904D01*
X76435343Y-29777446D01*
X76392285Y-29731914D01*
X76379665Y-29711561D01*
X76360329Y-29688679D01*
X76331070Y-29633184D01*
X76301181Y-29584978D01*
X76290850Y-29556901D01*
X76274095Y-29525121D01*
X76259017Y-29470381D01*
X76241484Y-29422728D01*
X76236118Y-29387247D01*
X76224994Y-29346861D01*
X76222334Y-29296097D01*
X76215632Y-29251784D01*
X76217822Y-29210005D01*
X76215317Y-29162216D01*
X76222646Y-29117944D01*
X76224680Y-29079137D01*
X76236728Y-29032883D01*
X76245516Y-28979800D01*
X76259965Y-28943675D01*
X76268259Y-28911833D01*
X76291991Y-28863604D01*
X76314181Y-28808124D01*
X76332697Y-28780879D01*
X76344587Y-28756715D01*
X76381175Y-28709546D01*
X76418110Y-28655198D01*
X76437704Y-28636668D01*
X76450553Y-28620104D01*
X76500395Y-28577384D01*
X76552452Y-28528156D01*
X76570443Y-28517346D01*
X76581815Y-28507599D01*
X76644411Y-28472902D01*
X76710941Y-28432926D01*
X76725162Y-28428140D01*
X76733028Y-28423780D01*
X76807009Y-28400596D01*
X76886183Y-28373951D01*
X76895137Y-28372978D01*
X76898000Y-28372081D01*
X76981046Y-28363646D01*
X77023809Y-28359000D01*
X77900311Y-28359000D01*
X78007270Y-28376707D01*
G37*
G36*
X66577270Y-28376707D02*
G01*
X66701689Y-28395968D01*
X66706690Y-28398132D01*
X66715865Y-28399651D01*
X66788903Y-28433709D01*
X66857312Y-28463313D01*
X66867129Y-28470187D01*
X66883440Y-28477793D01*
X66942726Y-28523121D01*
X66998929Y-28562474D01*
X67011276Y-28575530D01*
X67030327Y-28590096D01*
X67074657Y-28642554D01*
X67117715Y-28688086D01*
X67130335Y-28708439D01*
X67149671Y-28731321D01*
X67178930Y-28786816D01*
X67208819Y-28835022D01*
X67219150Y-28863099D01*
X67235905Y-28894879D01*
X67250983Y-28949619D01*
X67268516Y-28997272D01*
X67273882Y-29032753D01*
X67285006Y-29073139D01*
X67287666Y-29123903D01*
X67294368Y-29168216D01*
X67292178Y-29209995D01*
X67294683Y-29257784D01*
X67287354Y-29302056D01*
X67285320Y-29340863D01*
X67273272Y-29387117D01*
X67264484Y-29440200D01*
X67250035Y-29476325D01*
X67241741Y-29508167D01*
X67218009Y-29556396D01*
X67195819Y-29611876D01*
X67177303Y-29639121D01*
X67165413Y-29663285D01*
X67128825Y-29710454D01*
X67091890Y-29764802D01*
X67072296Y-29783332D01*
X67059447Y-29799896D01*
X67009605Y-29842616D01*
X66957548Y-29891844D01*
X66939557Y-29902654D01*
X66928185Y-29912401D01*
X66865589Y-29947098D01*
X66799059Y-29987074D01*
X66784838Y-29991860D01*
X66776972Y-29996220D01*
X66702991Y-30019404D01*
X66623817Y-30046049D01*
X66614863Y-30047022D01*
X66612000Y-30047919D01*
X66528954Y-30056354D01*
X66486191Y-30061000D01*
X65609689Y-30061000D01*
X65502730Y-30043293D01*
X65378311Y-30024032D01*
X65373310Y-30021868D01*
X65364135Y-30020349D01*
X65291097Y-29986291D01*
X65222688Y-29956687D01*
X65212871Y-29949813D01*
X65196560Y-29942207D01*
X65137274Y-29896879D01*
X65081071Y-29857526D01*
X65068724Y-29844470D01*
X65049673Y-29829904D01*
X65005343Y-29777446D01*
X64962285Y-29731914D01*
X64949665Y-29711561D01*
X64930329Y-29688679D01*
X64901070Y-29633184D01*
X64871181Y-29584978D01*
X64860850Y-29556901D01*
X64844095Y-29525121D01*
X64829017Y-29470381D01*
X64811484Y-29422728D01*
X64806118Y-29387247D01*
X64794994Y-29346861D01*
X64792334Y-29296097D01*
X64785632Y-29251784D01*
X64787822Y-29210005D01*
X64785317Y-29162216D01*
X64792646Y-29117944D01*
X64794680Y-29079137D01*
X64806728Y-29032883D01*
X64815516Y-28979800D01*
X64829965Y-28943675D01*
X64838259Y-28911833D01*
X64861991Y-28863604D01*
X64884181Y-28808124D01*
X64902697Y-28780879D01*
X64914587Y-28756715D01*
X64951175Y-28709546D01*
X64988110Y-28655198D01*
X65007704Y-28636668D01*
X65020553Y-28620104D01*
X65070395Y-28577384D01*
X65122452Y-28528156D01*
X65140443Y-28517346D01*
X65151815Y-28507599D01*
X65214411Y-28472902D01*
X65280941Y-28432926D01*
X65295162Y-28428140D01*
X65303028Y-28423780D01*
X65377009Y-28400596D01*
X65456183Y-28373951D01*
X65465137Y-28372978D01*
X65468000Y-28372081D01*
X65551046Y-28363646D01*
X65593809Y-28359000D01*
X66470311Y-28359000D01*
X66577270Y-28376707D01*
G37*
G36*
X70387270Y-28376707D02*
G01*
X70511689Y-28395968D01*
X70516690Y-28398132D01*
X70525865Y-28399651D01*
X70598903Y-28433709D01*
X70667312Y-28463313D01*
X70677129Y-28470187D01*
X70693440Y-28477793D01*
X70752726Y-28523121D01*
X70808929Y-28562474D01*
X70821276Y-28575530D01*
X70840327Y-28590096D01*
X70884657Y-28642554D01*
X70927715Y-28688086D01*
X70940335Y-28708439D01*
X70959671Y-28731321D01*
X70988930Y-28786816D01*
X71018819Y-28835022D01*
X71029150Y-28863099D01*
X71045905Y-28894879D01*
X71060983Y-28949619D01*
X71078516Y-28997272D01*
X71083882Y-29032753D01*
X71095006Y-29073139D01*
X71097666Y-29123903D01*
X71104368Y-29168216D01*
X71102178Y-29209995D01*
X71104683Y-29257784D01*
X71097354Y-29302056D01*
X71095320Y-29340863D01*
X71083272Y-29387117D01*
X71074484Y-29440200D01*
X71060035Y-29476325D01*
X71051741Y-29508167D01*
X71028009Y-29556396D01*
X71005819Y-29611876D01*
X70987303Y-29639121D01*
X70975413Y-29663285D01*
X70938825Y-29710454D01*
X70901890Y-29764802D01*
X70882296Y-29783332D01*
X70869447Y-29799896D01*
X70819605Y-29842616D01*
X70767548Y-29891844D01*
X70749557Y-29902654D01*
X70738185Y-29912401D01*
X70675589Y-29947098D01*
X70609059Y-29987074D01*
X70594838Y-29991860D01*
X70586972Y-29996220D01*
X70512991Y-30019404D01*
X70433817Y-30046049D01*
X70424863Y-30047022D01*
X70422000Y-30047919D01*
X70338954Y-30056354D01*
X70296191Y-30061000D01*
X69419689Y-30061000D01*
X69312730Y-30043293D01*
X69188311Y-30024032D01*
X69183310Y-30021868D01*
X69174135Y-30020349D01*
X69101097Y-29986291D01*
X69032688Y-29956687D01*
X69022871Y-29949813D01*
X69006560Y-29942207D01*
X68947274Y-29896879D01*
X68891071Y-29857526D01*
X68878724Y-29844470D01*
X68859673Y-29829904D01*
X68815343Y-29777446D01*
X68772285Y-29731914D01*
X68759665Y-29711561D01*
X68740329Y-29688679D01*
X68711070Y-29633184D01*
X68681181Y-29584978D01*
X68670850Y-29556901D01*
X68654095Y-29525121D01*
X68639017Y-29470381D01*
X68621484Y-29422728D01*
X68616118Y-29387247D01*
X68604994Y-29346861D01*
X68602334Y-29296097D01*
X68595632Y-29251784D01*
X68597822Y-29210005D01*
X68595317Y-29162216D01*
X68602646Y-29117944D01*
X68604680Y-29079137D01*
X68616728Y-29032883D01*
X68625516Y-28979800D01*
X68639965Y-28943675D01*
X68648259Y-28911833D01*
X68671991Y-28863604D01*
X68694181Y-28808124D01*
X68712697Y-28780879D01*
X68724587Y-28756715D01*
X68761175Y-28709546D01*
X68798110Y-28655198D01*
X68817704Y-28636668D01*
X68830553Y-28620104D01*
X68880395Y-28577384D01*
X68932452Y-28528156D01*
X68950443Y-28517346D01*
X68961815Y-28507599D01*
X69024411Y-28472902D01*
X69090941Y-28432926D01*
X69105162Y-28428140D01*
X69113028Y-28423780D01*
X69187009Y-28400596D01*
X69266183Y-28373951D01*
X69275137Y-28372978D01*
X69278000Y-28372081D01*
X69361046Y-28363646D01*
X69403809Y-28359000D01*
X70280311Y-28359000D01*
X70387270Y-28376707D01*
G37*
G36*
X81817270Y-28376707D02*
G01*
X81941689Y-28395968D01*
X81946690Y-28398132D01*
X81955865Y-28399651D01*
X82028903Y-28433709D01*
X82097312Y-28463313D01*
X82107129Y-28470187D01*
X82123440Y-28477793D01*
X82182726Y-28523121D01*
X82238929Y-28562474D01*
X82251276Y-28575530D01*
X82270327Y-28590096D01*
X82314657Y-28642554D01*
X82357715Y-28688086D01*
X82370335Y-28708439D01*
X82389671Y-28731321D01*
X82418930Y-28786816D01*
X82448819Y-28835022D01*
X82459150Y-28863099D01*
X82475905Y-28894879D01*
X82490983Y-28949619D01*
X82508516Y-28997272D01*
X82513882Y-29032753D01*
X82525006Y-29073139D01*
X82527666Y-29123903D01*
X82534368Y-29168216D01*
X82532178Y-29209995D01*
X82534683Y-29257784D01*
X82527354Y-29302056D01*
X82525320Y-29340863D01*
X82513272Y-29387117D01*
X82504484Y-29440200D01*
X82490035Y-29476325D01*
X82481741Y-29508167D01*
X82458009Y-29556396D01*
X82435819Y-29611876D01*
X82417303Y-29639121D01*
X82405413Y-29663285D01*
X82368825Y-29710454D01*
X82331890Y-29764802D01*
X82312296Y-29783332D01*
X82299447Y-29799896D01*
X82249605Y-29842616D01*
X82197548Y-29891844D01*
X82179557Y-29902654D01*
X82168185Y-29912401D01*
X82105589Y-29947098D01*
X82039059Y-29987074D01*
X82024838Y-29991860D01*
X82016972Y-29996220D01*
X81942991Y-30019404D01*
X81863817Y-30046049D01*
X81854863Y-30047022D01*
X81852000Y-30047919D01*
X81768954Y-30056354D01*
X81726191Y-30061000D01*
X80849689Y-30061000D01*
X80742730Y-30043293D01*
X80618311Y-30024032D01*
X80613310Y-30021868D01*
X80604135Y-30020349D01*
X80531097Y-29986291D01*
X80462688Y-29956687D01*
X80452871Y-29949813D01*
X80436560Y-29942207D01*
X80377274Y-29896879D01*
X80321071Y-29857526D01*
X80308724Y-29844470D01*
X80289673Y-29829904D01*
X80245343Y-29777446D01*
X80202285Y-29731914D01*
X80189665Y-29711561D01*
X80170329Y-29688679D01*
X80141070Y-29633184D01*
X80111181Y-29584978D01*
X80100850Y-29556901D01*
X80084095Y-29525121D01*
X80069017Y-29470381D01*
X80051484Y-29422728D01*
X80046118Y-29387247D01*
X80034994Y-29346861D01*
X80032334Y-29296097D01*
X80025632Y-29251784D01*
X80027822Y-29210005D01*
X80025317Y-29162216D01*
X80032646Y-29117944D01*
X80034680Y-29079137D01*
X80046728Y-29032883D01*
X80055516Y-28979800D01*
X80069965Y-28943675D01*
X80078259Y-28911833D01*
X80101991Y-28863604D01*
X80124181Y-28808124D01*
X80142697Y-28780879D01*
X80154587Y-28756715D01*
X80191175Y-28709546D01*
X80228110Y-28655198D01*
X80247704Y-28636668D01*
X80260553Y-28620104D01*
X80310395Y-28577384D01*
X80362452Y-28528156D01*
X80380443Y-28517346D01*
X80391815Y-28507599D01*
X80454411Y-28472902D01*
X80520941Y-28432926D01*
X80535162Y-28428140D01*
X80543028Y-28423780D01*
X80617009Y-28400596D01*
X80696183Y-28373951D01*
X80705137Y-28372978D01*
X80708000Y-28372081D01*
X80791046Y-28363646D01*
X80833809Y-28359000D01*
X81710311Y-28359000D01*
X81817270Y-28376707D01*
G37*
G36*
X74197270Y-28376707D02*
G01*
X74321689Y-28395968D01*
X74326690Y-28398132D01*
X74335865Y-28399651D01*
X74408903Y-28433709D01*
X74477312Y-28463313D01*
X74487129Y-28470187D01*
X74503440Y-28477793D01*
X74562726Y-28523121D01*
X74618929Y-28562474D01*
X74631276Y-28575530D01*
X74650327Y-28590096D01*
X74694657Y-28642554D01*
X74737715Y-28688086D01*
X74750335Y-28708439D01*
X74769671Y-28731321D01*
X74798930Y-28786816D01*
X74828819Y-28835022D01*
X74839150Y-28863099D01*
X74855905Y-28894879D01*
X74870983Y-28949619D01*
X74888516Y-28997272D01*
X74893882Y-29032753D01*
X74905006Y-29073139D01*
X74907666Y-29123903D01*
X74914368Y-29168216D01*
X74912178Y-29209995D01*
X74914683Y-29257784D01*
X74907354Y-29302056D01*
X74905320Y-29340863D01*
X74893272Y-29387117D01*
X74884484Y-29440200D01*
X74870035Y-29476325D01*
X74861741Y-29508167D01*
X74838009Y-29556396D01*
X74815819Y-29611876D01*
X74797303Y-29639121D01*
X74785413Y-29663285D01*
X74748825Y-29710454D01*
X74711890Y-29764802D01*
X74692296Y-29783332D01*
X74679447Y-29799896D01*
X74629605Y-29842616D01*
X74577548Y-29891844D01*
X74559557Y-29902654D01*
X74548185Y-29912401D01*
X74485589Y-29947098D01*
X74419059Y-29987074D01*
X74404838Y-29991860D01*
X74396972Y-29996220D01*
X74322991Y-30019404D01*
X74243817Y-30046049D01*
X74234863Y-30047022D01*
X74232000Y-30047919D01*
X74148954Y-30056354D01*
X74106191Y-30061000D01*
X73229689Y-30061000D01*
X73122730Y-30043293D01*
X72998311Y-30024032D01*
X72993310Y-30021868D01*
X72984135Y-30020349D01*
X72911097Y-29986291D01*
X72842688Y-29956687D01*
X72832871Y-29949813D01*
X72816560Y-29942207D01*
X72757274Y-29896879D01*
X72701071Y-29857526D01*
X72688724Y-29844470D01*
X72669673Y-29829904D01*
X72625343Y-29777446D01*
X72582285Y-29731914D01*
X72569665Y-29711561D01*
X72550329Y-29688679D01*
X72521070Y-29633184D01*
X72491181Y-29584978D01*
X72480850Y-29556901D01*
X72464095Y-29525121D01*
X72449017Y-29470381D01*
X72431484Y-29422728D01*
X72426118Y-29387247D01*
X72414994Y-29346861D01*
X72412334Y-29296097D01*
X72405632Y-29251784D01*
X72407822Y-29210005D01*
X72405317Y-29162216D01*
X72412646Y-29117944D01*
X72414680Y-29079137D01*
X72426728Y-29032883D01*
X72435516Y-28979800D01*
X72449965Y-28943675D01*
X72458259Y-28911833D01*
X72481991Y-28863604D01*
X72504181Y-28808124D01*
X72522697Y-28780879D01*
X72534587Y-28756715D01*
X72571175Y-28709546D01*
X72608110Y-28655198D01*
X72627704Y-28636668D01*
X72640553Y-28620104D01*
X72690395Y-28577384D01*
X72742452Y-28528156D01*
X72760443Y-28517346D01*
X72771815Y-28507599D01*
X72834411Y-28472902D01*
X72900941Y-28432926D01*
X72915162Y-28428140D01*
X72923028Y-28423780D01*
X72997009Y-28400596D01*
X73076183Y-28373951D01*
X73085137Y-28372978D01*
X73088000Y-28372081D01*
X73171046Y-28363646D01*
X73213809Y-28359000D01*
X74090311Y-28359000D01*
X74197270Y-28376707D01*
G37*
G36*
X48239899Y-24121959D02*
G01*
X48256769Y-24133231D01*
X48268041Y-24150101D01*
X48274448Y-24182312D01*
X48274448Y-29157688D01*
X48271999Y-29170000D01*
X48268041Y-29189899D01*
X48256769Y-29206769D01*
X48239899Y-29218041D01*
X48220000Y-29221999D01*
X48207688Y-29224448D01*
X43232312Y-29224448D01*
X43200101Y-29218041D01*
X43183231Y-29206769D01*
X43171959Y-29189899D01*
X43165552Y-29157688D01*
X43165552Y-24182312D01*
X43171959Y-24150101D01*
X43183231Y-24133231D01*
X43200101Y-24121959D01*
X43232312Y-24115552D01*
X48207688Y-24115552D01*
X48239899Y-24121959D01*
G37*
G36*
X55859899Y-24121959D02*
G01*
X55876769Y-24133231D01*
X55888041Y-24150101D01*
X55894448Y-24182312D01*
X55894448Y-29157688D01*
X55891999Y-29170000D01*
X55888041Y-29189899D01*
X55876769Y-29206769D01*
X55859899Y-29218041D01*
X55840000Y-29221999D01*
X55827688Y-29224448D01*
X50852312Y-29224448D01*
X50820101Y-29218041D01*
X50803231Y-29206769D01*
X50791959Y-29189899D01*
X50785552Y-29157688D01*
X50785552Y-24182312D01*
X50791959Y-24150101D01*
X50803231Y-24133231D01*
X50820101Y-24121959D01*
X50852312Y-24115552D01*
X55827688Y-24115552D01*
X55859899Y-24121959D01*
G37*
G36*
X63479899Y-24121959D02*
G01*
X63496769Y-24133231D01*
X63508041Y-24150101D01*
X63514448Y-24182312D01*
X63514448Y-29157688D01*
X63511999Y-29170000D01*
X63508041Y-29189899D01*
X63496769Y-29206769D01*
X63479899Y-29218041D01*
X63460000Y-29221999D01*
X63447688Y-29224448D01*
X58472312Y-29224448D01*
X58440101Y-29218041D01*
X58423231Y-29206769D01*
X58411959Y-29189899D01*
X58405552Y-29157688D01*
X58405552Y-24182312D01*
X58411959Y-24150101D01*
X58423231Y-24133231D01*
X58440101Y-24121959D01*
X58472312Y-24115552D01*
X63447688Y-24115552D01*
X63479899Y-24121959D01*
G37*
G36*
X81817270Y-25836707D02*
G01*
X81941689Y-25855968D01*
X81946690Y-25858132D01*
X81955865Y-25859651D01*
X82028903Y-25893709D01*
X82097312Y-25923313D01*
X82107129Y-25930187D01*
X82123440Y-25937793D01*
X82182726Y-25983121D01*
X82238929Y-26022474D01*
X82251276Y-26035530D01*
X82270327Y-26050096D01*
X82314657Y-26102554D01*
X82357715Y-26148086D01*
X82370335Y-26168439D01*
X82389671Y-26191321D01*
X82418930Y-26246816D01*
X82448819Y-26295022D01*
X82459150Y-26323099D01*
X82475905Y-26354879D01*
X82490983Y-26409619D01*
X82508516Y-26457272D01*
X82513882Y-26492753D01*
X82525006Y-26533139D01*
X82527666Y-26583903D01*
X82534368Y-26628216D01*
X82532178Y-26669995D01*
X82534683Y-26717784D01*
X82527354Y-26762056D01*
X82525320Y-26800863D01*
X82513272Y-26847117D01*
X82504484Y-26900200D01*
X82490035Y-26936325D01*
X82481741Y-26968167D01*
X82458009Y-27016396D01*
X82435819Y-27071876D01*
X82417303Y-27099121D01*
X82405413Y-27123285D01*
X82368825Y-27170454D01*
X82331890Y-27224802D01*
X82312296Y-27243332D01*
X82299447Y-27259896D01*
X82249605Y-27302616D01*
X82197548Y-27351844D01*
X82179557Y-27362654D01*
X82168185Y-27372401D01*
X82105589Y-27407098D01*
X82039059Y-27447074D01*
X82024838Y-27451860D01*
X82016972Y-27456220D01*
X81942991Y-27479404D01*
X81863817Y-27506049D01*
X81854863Y-27507022D01*
X81852000Y-27507919D01*
X81768954Y-27516354D01*
X81726191Y-27521000D01*
X80849689Y-27521000D01*
X80742730Y-27503293D01*
X80618311Y-27484032D01*
X80613310Y-27481868D01*
X80604135Y-27480349D01*
X80531097Y-27446291D01*
X80462688Y-27416687D01*
X80452871Y-27409813D01*
X80436560Y-27402207D01*
X80377274Y-27356879D01*
X80321071Y-27317526D01*
X80308724Y-27304470D01*
X80289673Y-27289904D01*
X80245343Y-27237446D01*
X80202285Y-27191914D01*
X80189665Y-27171561D01*
X80170329Y-27148679D01*
X80141070Y-27093184D01*
X80111181Y-27044978D01*
X80100850Y-27016901D01*
X80084095Y-26985121D01*
X80069017Y-26930381D01*
X80051484Y-26882728D01*
X80046118Y-26847247D01*
X80034994Y-26806861D01*
X80032334Y-26756097D01*
X80025632Y-26711784D01*
X80027822Y-26670005D01*
X80025317Y-26622216D01*
X80032646Y-26577944D01*
X80034680Y-26539137D01*
X80046728Y-26492883D01*
X80055516Y-26439800D01*
X80069965Y-26403675D01*
X80078259Y-26371833D01*
X80101991Y-26323604D01*
X80124181Y-26268124D01*
X80142697Y-26240879D01*
X80154587Y-26216715D01*
X80191175Y-26169546D01*
X80228110Y-26115198D01*
X80247704Y-26096668D01*
X80260553Y-26080104D01*
X80310395Y-26037384D01*
X80362452Y-25988156D01*
X80380443Y-25977346D01*
X80391815Y-25967599D01*
X80454411Y-25932902D01*
X80520941Y-25892926D01*
X80535162Y-25888140D01*
X80543028Y-25883780D01*
X80617009Y-25860596D01*
X80696183Y-25833951D01*
X80705137Y-25832978D01*
X80708000Y-25832081D01*
X80791046Y-25823646D01*
X80833809Y-25819000D01*
X81710311Y-25819000D01*
X81817270Y-25836707D01*
G37*
G36*
X74197270Y-25836707D02*
G01*
X74321689Y-25855968D01*
X74326690Y-25858132D01*
X74335865Y-25859651D01*
X74408903Y-25893709D01*
X74477312Y-25923313D01*
X74487129Y-25930187D01*
X74503440Y-25937793D01*
X74562726Y-25983121D01*
X74618929Y-26022474D01*
X74631276Y-26035530D01*
X74650327Y-26050096D01*
X74694657Y-26102554D01*
X74737715Y-26148086D01*
X74750335Y-26168439D01*
X74769671Y-26191321D01*
X74798930Y-26246816D01*
X74828819Y-26295022D01*
X74839150Y-26323099D01*
X74855905Y-26354879D01*
X74870983Y-26409619D01*
X74888516Y-26457272D01*
X74893882Y-26492753D01*
X74905006Y-26533139D01*
X74907666Y-26583903D01*
X74914368Y-26628216D01*
X74912178Y-26669995D01*
X74914683Y-26717784D01*
X74907354Y-26762056D01*
X74905320Y-26800863D01*
X74893272Y-26847117D01*
X74884484Y-26900200D01*
X74870035Y-26936325D01*
X74861741Y-26968167D01*
X74838009Y-27016396D01*
X74815819Y-27071876D01*
X74797303Y-27099121D01*
X74785413Y-27123285D01*
X74748825Y-27170454D01*
X74711890Y-27224802D01*
X74692296Y-27243332D01*
X74679447Y-27259896D01*
X74629605Y-27302616D01*
X74577548Y-27351844D01*
X74559557Y-27362654D01*
X74548185Y-27372401D01*
X74485589Y-27407098D01*
X74419059Y-27447074D01*
X74404838Y-27451860D01*
X74396972Y-27456220D01*
X74322991Y-27479404D01*
X74243817Y-27506049D01*
X74234863Y-27507022D01*
X74232000Y-27507919D01*
X74148954Y-27516354D01*
X74106191Y-27521000D01*
X73229689Y-27521000D01*
X73122730Y-27503293D01*
X72998311Y-27484032D01*
X72993310Y-27481868D01*
X72984135Y-27480349D01*
X72911097Y-27446291D01*
X72842688Y-27416687D01*
X72832871Y-27409813D01*
X72816560Y-27402207D01*
X72757274Y-27356879D01*
X72701071Y-27317526D01*
X72688724Y-27304470D01*
X72669673Y-27289904D01*
X72625343Y-27237446D01*
X72582285Y-27191914D01*
X72569665Y-27171561D01*
X72550329Y-27148679D01*
X72521070Y-27093184D01*
X72491181Y-27044978D01*
X72480850Y-27016901D01*
X72464095Y-26985121D01*
X72449017Y-26930381D01*
X72431484Y-26882728D01*
X72426118Y-26847247D01*
X72414994Y-26806861D01*
X72412334Y-26756097D01*
X72405632Y-26711784D01*
X72407822Y-26670005D01*
X72405317Y-26622216D01*
X72412646Y-26577944D01*
X72414680Y-26539137D01*
X72426728Y-26492883D01*
X72435516Y-26439800D01*
X72449965Y-26403675D01*
X72458259Y-26371833D01*
X72481991Y-26323604D01*
X72504181Y-26268124D01*
X72522697Y-26240879D01*
X72534587Y-26216715D01*
X72571175Y-26169546D01*
X72608110Y-26115198D01*
X72627704Y-26096668D01*
X72640553Y-26080104D01*
X72690395Y-26037384D01*
X72742452Y-25988156D01*
X72760443Y-25977346D01*
X72771815Y-25967599D01*
X72834411Y-25932902D01*
X72900941Y-25892926D01*
X72915162Y-25888140D01*
X72923028Y-25883780D01*
X72997009Y-25860596D01*
X73076183Y-25833951D01*
X73085137Y-25832978D01*
X73088000Y-25832081D01*
X73171046Y-25823646D01*
X73213809Y-25819000D01*
X74090311Y-25819000D01*
X74197270Y-25836707D01*
G37*
G36*
X78007270Y-25836707D02*
G01*
X78131689Y-25855968D01*
X78136690Y-25858132D01*
X78145865Y-25859651D01*
X78218903Y-25893709D01*
X78287312Y-25923313D01*
X78297129Y-25930187D01*
X78313440Y-25937793D01*
X78372726Y-25983121D01*
X78428929Y-26022474D01*
X78441276Y-26035530D01*
X78460327Y-26050096D01*
X78504657Y-26102554D01*
X78547715Y-26148086D01*
X78560335Y-26168439D01*
X78579671Y-26191321D01*
X78608930Y-26246816D01*
X78638819Y-26295022D01*
X78649150Y-26323099D01*
X78665905Y-26354879D01*
X78680983Y-26409619D01*
X78698516Y-26457272D01*
X78703882Y-26492753D01*
X78715006Y-26533139D01*
X78717666Y-26583903D01*
X78724368Y-26628216D01*
X78722178Y-26669995D01*
X78724683Y-26717784D01*
X78717354Y-26762056D01*
X78715320Y-26800863D01*
X78703272Y-26847117D01*
X78694484Y-26900200D01*
X78680035Y-26936325D01*
X78671741Y-26968167D01*
X78648009Y-27016396D01*
X78625819Y-27071876D01*
X78607303Y-27099121D01*
X78595413Y-27123285D01*
X78558825Y-27170454D01*
X78521890Y-27224802D01*
X78502296Y-27243332D01*
X78489447Y-27259896D01*
X78439605Y-27302616D01*
X78387548Y-27351844D01*
X78369557Y-27362654D01*
X78358185Y-27372401D01*
X78295589Y-27407098D01*
X78229059Y-27447074D01*
X78214838Y-27451860D01*
X78206972Y-27456220D01*
X78132991Y-27479404D01*
X78053817Y-27506049D01*
X78044863Y-27507022D01*
X78042000Y-27507919D01*
X77958954Y-27516354D01*
X77916191Y-27521000D01*
X77039689Y-27521000D01*
X76932730Y-27503293D01*
X76808311Y-27484032D01*
X76803310Y-27481868D01*
X76794135Y-27480349D01*
X76721097Y-27446291D01*
X76652688Y-27416687D01*
X76642871Y-27409813D01*
X76626560Y-27402207D01*
X76567274Y-27356879D01*
X76511071Y-27317526D01*
X76498724Y-27304470D01*
X76479673Y-27289904D01*
X76435343Y-27237446D01*
X76392285Y-27191914D01*
X76379665Y-27171561D01*
X76360329Y-27148679D01*
X76331070Y-27093184D01*
X76301181Y-27044978D01*
X76290850Y-27016901D01*
X76274095Y-26985121D01*
X76259017Y-26930381D01*
X76241484Y-26882728D01*
X76236118Y-26847247D01*
X76224994Y-26806861D01*
X76222334Y-26756097D01*
X76215632Y-26711784D01*
X76217822Y-26670005D01*
X76215317Y-26622216D01*
X76222646Y-26577944D01*
X76224680Y-26539137D01*
X76236728Y-26492883D01*
X76245516Y-26439800D01*
X76259965Y-26403675D01*
X76268259Y-26371833D01*
X76291991Y-26323604D01*
X76314181Y-26268124D01*
X76332697Y-26240879D01*
X76344587Y-26216715D01*
X76381175Y-26169546D01*
X76418110Y-26115198D01*
X76437704Y-26096668D01*
X76450553Y-26080104D01*
X76500395Y-26037384D01*
X76552452Y-25988156D01*
X76570443Y-25977346D01*
X76581815Y-25967599D01*
X76644411Y-25932902D01*
X76710941Y-25892926D01*
X76725162Y-25888140D01*
X76733028Y-25883780D01*
X76807009Y-25860596D01*
X76886183Y-25833951D01*
X76895137Y-25832978D01*
X76898000Y-25832081D01*
X76981046Y-25823646D01*
X77023809Y-25819000D01*
X77900311Y-25819000D01*
X78007270Y-25836707D01*
G37*
G36*
X85627270Y-25836707D02*
G01*
X85751689Y-25855968D01*
X85756690Y-25858132D01*
X85765865Y-25859651D01*
X85838903Y-25893709D01*
X85907312Y-25923313D01*
X85917129Y-25930187D01*
X85933440Y-25937793D01*
X85992726Y-25983121D01*
X86048929Y-26022474D01*
X86061276Y-26035530D01*
X86080327Y-26050096D01*
X86124657Y-26102554D01*
X86167715Y-26148086D01*
X86180335Y-26168439D01*
X86199671Y-26191321D01*
X86228930Y-26246816D01*
X86258819Y-26295022D01*
X86269150Y-26323099D01*
X86285905Y-26354879D01*
X86300983Y-26409619D01*
X86318516Y-26457272D01*
X86323882Y-26492753D01*
X86335006Y-26533139D01*
X86337666Y-26583903D01*
X86344368Y-26628216D01*
X86342178Y-26669995D01*
X86344683Y-26717784D01*
X86337354Y-26762056D01*
X86335320Y-26800863D01*
X86323272Y-26847117D01*
X86314484Y-26900200D01*
X86300035Y-26936325D01*
X86291741Y-26968167D01*
X86268009Y-27016396D01*
X86245819Y-27071876D01*
X86227303Y-27099121D01*
X86215413Y-27123285D01*
X86178825Y-27170454D01*
X86141890Y-27224802D01*
X86122296Y-27243332D01*
X86109447Y-27259896D01*
X86059605Y-27302616D01*
X86007548Y-27351844D01*
X85989557Y-27362654D01*
X85978185Y-27372401D01*
X85915589Y-27407098D01*
X85849059Y-27447074D01*
X85834838Y-27451860D01*
X85826972Y-27456220D01*
X85752991Y-27479404D01*
X85673817Y-27506049D01*
X85664863Y-27507022D01*
X85662000Y-27507919D01*
X85578954Y-27516354D01*
X85536191Y-27521000D01*
X84659689Y-27521000D01*
X84552730Y-27503293D01*
X84428311Y-27484032D01*
X84423310Y-27481868D01*
X84414135Y-27480349D01*
X84341097Y-27446291D01*
X84272688Y-27416687D01*
X84262871Y-27409813D01*
X84246560Y-27402207D01*
X84187274Y-27356879D01*
X84131071Y-27317526D01*
X84118724Y-27304470D01*
X84099673Y-27289904D01*
X84055343Y-27237446D01*
X84012285Y-27191914D01*
X83999665Y-27171561D01*
X83980329Y-27148679D01*
X83951070Y-27093184D01*
X83921181Y-27044978D01*
X83910850Y-27016901D01*
X83894095Y-26985121D01*
X83879017Y-26930381D01*
X83861484Y-26882728D01*
X83856118Y-26847247D01*
X83844994Y-26806861D01*
X83842334Y-26756097D01*
X83835632Y-26711784D01*
X83837822Y-26670005D01*
X83835317Y-26622216D01*
X83842646Y-26577944D01*
X83844680Y-26539137D01*
X83856728Y-26492883D01*
X83865516Y-26439800D01*
X83879965Y-26403675D01*
X83888259Y-26371833D01*
X83911991Y-26323604D01*
X83934181Y-26268124D01*
X83952697Y-26240879D01*
X83964587Y-26216715D01*
X84001175Y-26169546D01*
X84038110Y-26115198D01*
X84057704Y-26096668D01*
X84070553Y-26080104D01*
X84120395Y-26037384D01*
X84172452Y-25988156D01*
X84190443Y-25977346D01*
X84201815Y-25967599D01*
X84264411Y-25932902D01*
X84330941Y-25892926D01*
X84345162Y-25888140D01*
X84353028Y-25883780D01*
X84427009Y-25860596D01*
X84506183Y-25833951D01*
X84515137Y-25832978D01*
X84518000Y-25832081D01*
X84601046Y-25823646D01*
X84643809Y-25819000D01*
X85520311Y-25819000D01*
X85627270Y-25836707D01*
G37*
G36*
X66577270Y-25836707D02*
G01*
X66701689Y-25855968D01*
X66706690Y-25858132D01*
X66715865Y-25859651D01*
X66788903Y-25893709D01*
X66857312Y-25923313D01*
X66867129Y-25930187D01*
X66883440Y-25937793D01*
X66942726Y-25983121D01*
X66998929Y-26022474D01*
X67011276Y-26035530D01*
X67030327Y-26050096D01*
X67074657Y-26102554D01*
X67117715Y-26148086D01*
X67130335Y-26168439D01*
X67149671Y-26191321D01*
X67178930Y-26246816D01*
X67208819Y-26295022D01*
X67219150Y-26323099D01*
X67235905Y-26354879D01*
X67250983Y-26409619D01*
X67268516Y-26457272D01*
X67273882Y-26492753D01*
X67285006Y-26533139D01*
X67287666Y-26583903D01*
X67294368Y-26628216D01*
X67292178Y-26669995D01*
X67294683Y-26717784D01*
X67287354Y-26762056D01*
X67285320Y-26800863D01*
X67273272Y-26847117D01*
X67264484Y-26900200D01*
X67250035Y-26936325D01*
X67241741Y-26968167D01*
X67218009Y-27016396D01*
X67195819Y-27071876D01*
X67177303Y-27099121D01*
X67165413Y-27123285D01*
X67128825Y-27170454D01*
X67091890Y-27224802D01*
X67072296Y-27243332D01*
X67059447Y-27259896D01*
X67009605Y-27302616D01*
X66957548Y-27351844D01*
X66939557Y-27362654D01*
X66928185Y-27372401D01*
X66865589Y-27407098D01*
X66799059Y-27447074D01*
X66784838Y-27451860D01*
X66776972Y-27456220D01*
X66702991Y-27479404D01*
X66623817Y-27506049D01*
X66614863Y-27507022D01*
X66612000Y-27507919D01*
X66528954Y-27516354D01*
X66486191Y-27521000D01*
X65609689Y-27521000D01*
X65502730Y-27503293D01*
X65378311Y-27484032D01*
X65373310Y-27481868D01*
X65364135Y-27480349D01*
X65291097Y-27446291D01*
X65222688Y-27416687D01*
X65212871Y-27409813D01*
X65196560Y-27402207D01*
X65137274Y-27356879D01*
X65081071Y-27317526D01*
X65068724Y-27304470D01*
X65049673Y-27289904D01*
X65005343Y-27237446D01*
X64962285Y-27191914D01*
X64949665Y-27171561D01*
X64930329Y-27148679D01*
X64901070Y-27093184D01*
X64871181Y-27044978D01*
X64860850Y-27016901D01*
X64844095Y-26985121D01*
X64829017Y-26930381D01*
X64811484Y-26882728D01*
X64806118Y-26847247D01*
X64794994Y-26806861D01*
X64792334Y-26756097D01*
X64785632Y-26711784D01*
X64787822Y-26670005D01*
X64785317Y-26622216D01*
X64792646Y-26577944D01*
X64794680Y-26539137D01*
X64806728Y-26492883D01*
X64815516Y-26439800D01*
X64829965Y-26403675D01*
X64838259Y-26371833D01*
X64861991Y-26323604D01*
X64884181Y-26268124D01*
X64902697Y-26240879D01*
X64914587Y-26216715D01*
X64951175Y-26169546D01*
X64988110Y-26115198D01*
X65007704Y-26096668D01*
X65020553Y-26080104D01*
X65070395Y-26037384D01*
X65122452Y-25988156D01*
X65140443Y-25977346D01*
X65151815Y-25967599D01*
X65214411Y-25932902D01*
X65280941Y-25892926D01*
X65295162Y-25888140D01*
X65303028Y-25883780D01*
X65377009Y-25860596D01*
X65456183Y-25833951D01*
X65465137Y-25832978D01*
X65468000Y-25832081D01*
X65551046Y-25823646D01*
X65593809Y-25819000D01*
X66470311Y-25819000D01*
X66577270Y-25836707D01*
G37*
G36*
X70387270Y-25836707D02*
G01*
X70511689Y-25855968D01*
X70516690Y-25858132D01*
X70525865Y-25859651D01*
X70598903Y-25893709D01*
X70667312Y-25923313D01*
X70677129Y-25930187D01*
X70693440Y-25937793D01*
X70752726Y-25983121D01*
X70808929Y-26022474D01*
X70821276Y-26035530D01*
X70840327Y-26050096D01*
X70884657Y-26102554D01*
X70927715Y-26148086D01*
X70940335Y-26168439D01*
X70959671Y-26191321D01*
X70988930Y-26246816D01*
X71018819Y-26295022D01*
X71029150Y-26323099D01*
X71045905Y-26354879D01*
X71060983Y-26409619D01*
X71078516Y-26457272D01*
X71083882Y-26492753D01*
X71095006Y-26533139D01*
X71097666Y-26583903D01*
X71104368Y-26628216D01*
X71102178Y-26669995D01*
X71104683Y-26717784D01*
X71097354Y-26762056D01*
X71095320Y-26800863D01*
X71083272Y-26847117D01*
X71074484Y-26900200D01*
X71060035Y-26936325D01*
X71051741Y-26968167D01*
X71028009Y-27016396D01*
X71005819Y-27071876D01*
X70987303Y-27099121D01*
X70975413Y-27123285D01*
X70938825Y-27170454D01*
X70901890Y-27224802D01*
X70882296Y-27243332D01*
X70869447Y-27259896D01*
X70819605Y-27302616D01*
X70767548Y-27351844D01*
X70749557Y-27362654D01*
X70738185Y-27372401D01*
X70675589Y-27407098D01*
X70609059Y-27447074D01*
X70594838Y-27451860D01*
X70586972Y-27456220D01*
X70512991Y-27479404D01*
X70433817Y-27506049D01*
X70424863Y-27507022D01*
X70422000Y-27507919D01*
X70338954Y-27516354D01*
X70296191Y-27521000D01*
X69419689Y-27521000D01*
X69312730Y-27503293D01*
X69188311Y-27484032D01*
X69183310Y-27481868D01*
X69174135Y-27480349D01*
X69101097Y-27446291D01*
X69032688Y-27416687D01*
X69022871Y-27409813D01*
X69006560Y-27402207D01*
X68947274Y-27356879D01*
X68891071Y-27317526D01*
X68878724Y-27304470D01*
X68859673Y-27289904D01*
X68815343Y-27237446D01*
X68772285Y-27191914D01*
X68759665Y-27171561D01*
X68740329Y-27148679D01*
X68711070Y-27093184D01*
X68681181Y-27044978D01*
X68670850Y-27016901D01*
X68654095Y-26985121D01*
X68639017Y-26930381D01*
X68621484Y-26882728D01*
X68616118Y-26847247D01*
X68604994Y-26806861D01*
X68602334Y-26756097D01*
X68595632Y-26711784D01*
X68597822Y-26670005D01*
X68595317Y-26622216D01*
X68602646Y-26577944D01*
X68604680Y-26539137D01*
X68616728Y-26492883D01*
X68625516Y-26439800D01*
X68639965Y-26403675D01*
X68648259Y-26371833D01*
X68671991Y-26323604D01*
X68694181Y-26268124D01*
X68712697Y-26240879D01*
X68724587Y-26216715D01*
X68761175Y-26169546D01*
X68798110Y-26115198D01*
X68817704Y-26096668D01*
X68830553Y-26080104D01*
X68880395Y-26037384D01*
X68932452Y-25988156D01*
X68950443Y-25977346D01*
X68961815Y-25967599D01*
X69024411Y-25932902D01*
X69090941Y-25892926D01*
X69105162Y-25888140D01*
X69113028Y-25883780D01*
X69187009Y-25860596D01*
X69266183Y-25833951D01*
X69275137Y-25832978D01*
X69278000Y-25832081D01*
X69361046Y-25823646D01*
X69403809Y-25819000D01*
X70280311Y-25819000D01*
X70387270Y-25836707D01*
G37*
G36*
X70387270Y-23296707D02*
G01*
X70511689Y-23315968D01*
X70516690Y-23318132D01*
X70525865Y-23319651D01*
X70598903Y-23353709D01*
X70667312Y-23383313D01*
X70677129Y-23390187D01*
X70693440Y-23397793D01*
X70752726Y-23443121D01*
X70808929Y-23482474D01*
X70821276Y-23495530D01*
X70840327Y-23510096D01*
X70884657Y-23562554D01*
X70927715Y-23608086D01*
X70940335Y-23628439D01*
X70959671Y-23651321D01*
X70988930Y-23706816D01*
X71018819Y-23755022D01*
X71029150Y-23783099D01*
X71045905Y-23814879D01*
X71060983Y-23869619D01*
X71078516Y-23917272D01*
X71083882Y-23952753D01*
X71095006Y-23993139D01*
X71097666Y-24043903D01*
X71104368Y-24088216D01*
X71102178Y-24129995D01*
X71104683Y-24177784D01*
X71097354Y-24222056D01*
X71095320Y-24260863D01*
X71083272Y-24307117D01*
X71074484Y-24360200D01*
X71060035Y-24396325D01*
X71051741Y-24428167D01*
X71028009Y-24476396D01*
X71005819Y-24531876D01*
X70987303Y-24559121D01*
X70975413Y-24583285D01*
X70938825Y-24630454D01*
X70901890Y-24684802D01*
X70882296Y-24703332D01*
X70869447Y-24719896D01*
X70819605Y-24762616D01*
X70767548Y-24811844D01*
X70749557Y-24822654D01*
X70738185Y-24832401D01*
X70675589Y-24867098D01*
X70609059Y-24907074D01*
X70594838Y-24911860D01*
X70586972Y-24916220D01*
X70512991Y-24939404D01*
X70433817Y-24966049D01*
X70424863Y-24967022D01*
X70422000Y-24967919D01*
X70338954Y-24976354D01*
X70296191Y-24981000D01*
X69419689Y-24981000D01*
X69312730Y-24963293D01*
X69188311Y-24944032D01*
X69183310Y-24941868D01*
X69174135Y-24940349D01*
X69101097Y-24906291D01*
X69032688Y-24876687D01*
X69022871Y-24869813D01*
X69006560Y-24862207D01*
X68947274Y-24816879D01*
X68891071Y-24777526D01*
X68878724Y-24764470D01*
X68859673Y-24749904D01*
X68815343Y-24697446D01*
X68772285Y-24651914D01*
X68759665Y-24631561D01*
X68740329Y-24608679D01*
X68711070Y-24553184D01*
X68681181Y-24504978D01*
X68670850Y-24476901D01*
X68654095Y-24445121D01*
X68639017Y-24390381D01*
X68621484Y-24342728D01*
X68616118Y-24307247D01*
X68604994Y-24266861D01*
X68602334Y-24216097D01*
X68595632Y-24171784D01*
X68597822Y-24130005D01*
X68595317Y-24082216D01*
X68602646Y-24037944D01*
X68604680Y-23999137D01*
X68616728Y-23952883D01*
X68625516Y-23899800D01*
X68639965Y-23863675D01*
X68648259Y-23831833D01*
X68671991Y-23783604D01*
X68694181Y-23728124D01*
X68712697Y-23700879D01*
X68724587Y-23676715D01*
X68761175Y-23629546D01*
X68798110Y-23575198D01*
X68817704Y-23556668D01*
X68830553Y-23540104D01*
X68880395Y-23497384D01*
X68932452Y-23448156D01*
X68950443Y-23437346D01*
X68961815Y-23427599D01*
X69024411Y-23392902D01*
X69090941Y-23352926D01*
X69105162Y-23348140D01*
X69113028Y-23343780D01*
X69187009Y-23320596D01*
X69266183Y-23293951D01*
X69275137Y-23292978D01*
X69278000Y-23292081D01*
X69361046Y-23283646D01*
X69403809Y-23279000D01*
X70280311Y-23279000D01*
X70387270Y-23296707D01*
G37*
G36*
X74197270Y-23296707D02*
G01*
X74321689Y-23315968D01*
X74326690Y-23318132D01*
X74335865Y-23319651D01*
X74408903Y-23353709D01*
X74477312Y-23383313D01*
X74487129Y-23390187D01*
X74503440Y-23397793D01*
X74562726Y-23443121D01*
X74618929Y-23482474D01*
X74631276Y-23495530D01*
X74650327Y-23510096D01*
X74694657Y-23562554D01*
X74737715Y-23608086D01*
X74750335Y-23628439D01*
X74769671Y-23651321D01*
X74798930Y-23706816D01*
X74828819Y-23755022D01*
X74839150Y-23783099D01*
X74855905Y-23814879D01*
X74870983Y-23869619D01*
X74888516Y-23917272D01*
X74893882Y-23952753D01*
X74905006Y-23993139D01*
X74907666Y-24043903D01*
X74914368Y-24088216D01*
X74912178Y-24129995D01*
X74914683Y-24177784D01*
X74907354Y-24222056D01*
X74905320Y-24260863D01*
X74893272Y-24307117D01*
X74884484Y-24360200D01*
X74870035Y-24396325D01*
X74861741Y-24428167D01*
X74838009Y-24476396D01*
X74815819Y-24531876D01*
X74797303Y-24559121D01*
X74785413Y-24583285D01*
X74748825Y-24630454D01*
X74711890Y-24684802D01*
X74692296Y-24703332D01*
X74679447Y-24719896D01*
X74629605Y-24762616D01*
X74577548Y-24811844D01*
X74559557Y-24822654D01*
X74548185Y-24832401D01*
X74485589Y-24867098D01*
X74419059Y-24907074D01*
X74404838Y-24911860D01*
X74396972Y-24916220D01*
X74322991Y-24939404D01*
X74243817Y-24966049D01*
X74234863Y-24967022D01*
X74232000Y-24967919D01*
X74148954Y-24976354D01*
X74106191Y-24981000D01*
X73229689Y-24981000D01*
X73122730Y-24963293D01*
X72998311Y-24944032D01*
X72993310Y-24941868D01*
X72984135Y-24940349D01*
X72911097Y-24906291D01*
X72842688Y-24876687D01*
X72832871Y-24869813D01*
X72816560Y-24862207D01*
X72757274Y-24816879D01*
X72701071Y-24777526D01*
X72688724Y-24764470D01*
X72669673Y-24749904D01*
X72625343Y-24697446D01*
X72582285Y-24651914D01*
X72569665Y-24631561D01*
X72550329Y-24608679D01*
X72521070Y-24553184D01*
X72491181Y-24504978D01*
X72480850Y-24476901D01*
X72464095Y-24445121D01*
X72449017Y-24390381D01*
X72431484Y-24342728D01*
X72426118Y-24307247D01*
X72414994Y-24266861D01*
X72412334Y-24216097D01*
X72405632Y-24171784D01*
X72407822Y-24130005D01*
X72405317Y-24082216D01*
X72412646Y-24037944D01*
X72414680Y-23999137D01*
X72426728Y-23952883D01*
X72435516Y-23899800D01*
X72449965Y-23863675D01*
X72458259Y-23831833D01*
X72481991Y-23783604D01*
X72504181Y-23728124D01*
X72522697Y-23700879D01*
X72534587Y-23676715D01*
X72571175Y-23629546D01*
X72608110Y-23575198D01*
X72627704Y-23556668D01*
X72640553Y-23540104D01*
X72690395Y-23497384D01*
X72742452Y-23448156D01*
X72760443Y-23437346D01*
X72771815Y-23427599D01*
X72834411Y-23392902D01*
X72900941Y-23352926D01*
X72915162Y-23348140D01*
X72923028Y-23343780D01*
X72997009Y-23320596D01*
X73076183Y-23293951D01*
X73085137Y-23292978D01*
X73088000Y-23292081D01*
X73171046Y-23283646D01*
X73213809Y-23279000D01*
X74090311Y-23279000D01*
X74197270Y-23296707D01*
G37*
G36*
X66577270Y-23296707D02*
G01*
X66701689Y-23315968D01*
X66706690Y-23318132D01*
X66715865Y-23319651D01*
X66788903Y-23353709D01*
X66857312Y-23383313D01*
X66867129Y-23390187D01*
X66883440Y-23397793D01*
X66942726Y-23443121D01*
X66998929Y-23482474D01*
X67011276Y-23495530D01*
X67030327Y-23510096D01*
X67074657Y-23562554D01*
X67117715Y-23608086D01*
X67130335Y-23628439D01*
X67149671Y-23651321D01*
X67178930Y-23706816D01*
X67208819Y-23755022D01*
X67219150Y-23783099D01*
X67235905Y-23814879D01*
X67250983Y-23869619D01*
X67268516Y-23917272D01*
X67273882Y-23952753D01*
X67285006Y-23993139D01*
X67287666Y-24043903D01*
X67294368Y-24088216D01*
X67292178Y-24129995D01*
X67294683Y-24177784D01*
X67287354Y-24222056D01*
X67285320Y-24260863D01*
X67273272Y-24307117D01*
X67264484Y-24360200D01*
X67250035Y-24396325D01*
X67241741Y-24428167D01*
X67218009Y-24476396D01*
X67195819Y-24531876D01*
X67177303Y-24559121D01*
X67165413Y-24583285D01*
X67128825Y-24630454D01*
X67091890Y-24684802D01*
X67072296Y-24703332D01*
X67059447Y-24719896D01*
X67009605Y-24762616D01*
X66957548Y-24811844D01*
X66939557Y-24822654D01*
X66928185Y-24832401D01*
X66865589Y-24867098D01*
X66799059Y-24907074D01*
X66784838Y-24911860D01*
X66776972Y-24916220D01*
X66702991Y-24939404D01*
X66623817Y-24966049D01*
X66614863Y-24967022D01*
X66612000Y-24967919D01*
X66528954Y-24976354D01*
X66486191Y-24981000D01*
X65609689Y-24981000D01*
X65502730Y-24963293D01*
X65378311Y-24944032D01*
X65373310Y-24941868D01*
X65364135Y-24940349D01*
X65291097Y-24906291D01*
X65222688Y-24876687D01*
X65212871Y-24869813D01*
X65196560Y-24862207D01*
X65137274Y-24816879D01*
X65081071Y-24777526D01*
X65068724Y-24764470D01*
X65049673Y-24749904D01*
X65005343Y-24697446D01*
X64962285Y-24651914D01*
X64949665Y-24631561D01*
X64930329Y-24608679D01*
X64901070Y-24553184D01*
X64871181Y-24504978D01*
X64860850Y-24476901D01*
X64844095Y-24445121D01*
X64829017Y-24390381D01*
X64811484Y-24342728D01*
X64806118Y-24307247D01*
X64794994Y-24266861D01*
X64792334Y-24216097D01*
X64785632Y-24171784D01*
X64787822Y-24130005D01*
X64785317Y-24082216D01*
X64792646Y-24037944D01*
X64794680Y-23999137D01*
X64806728Y-23952883D01*
X64815516Y-23899800D01*
X64829965Y-23863675D01*
X64838259Y-23831833D01*
X64861991Y-23783604D01*
X64884181Y-23728124D01*
X64902697Y-23700879D01*
X64914587Y-23676715D01*
X64951175Y-23629546D01*
X64988110Y-23575198D01*
X65007704Y-23556668D01*
X65020553Y-23540104D01*
X65070395Y-23497384D01*
X65122452Y-23448156D01*
X65140443Y-23437346D01*
X65151815Y-23427599D01*
X65214411Y-23392902D01*
X65280941Y-23352926D01*
X65295162Y-23348140D01*
X65303028Y-23343780D01*
X65377009Y-23320596D01*
X65456183Y-23293951D01*
X65465137Y-23292978D01*
X65468000Y-23292081D01*
X65551046Y-23283646D01*
X65593809Y-23279000D01*
X66470311Y-23279000D01*
X66577270Y-23296707D01*
G37*
G36*
X78007270Y-23296707D02*
G01*
X78131689Y-23315968D01*
X78136690Y-23318132D01*
X78145865Y-23319651D01*
X78218903Y-23353709D01*
X78287312Y-23383313D01*
X78297129Y-23390187D01*
X78313440Y-23397793D01*
X78372726Y-23443121D01*
X78428929Y-23482474D01*
X78441276Y-23495530D01*
X78460327Y-23510096D01*
X78504657Y-23562554D01*
X78547715Y-23608086D01*
X78560335Y-23628439D01*
X78579671Y-23651321D01*
X78608930Y-23706816D01*
X78638819Y-23755022D01*
X78649150Y-23783099D01*
X78665905Y-23814879D01*
X78680983Y-23869619D01*
X78698516Y-23917272D01*
X78703882Y-23952753D01*
X78715006Y-23993139D01*
X78717666Y-24043903D01*
X78724368Y-24088216D01*
X78722178Y-24129995D01*
X78724683Y-24177784D01*
X78717354Y-24222056D01*
X78715320Y-24260863D01*
X78703272Y-24307117D01*
X78694484Y-24360200D01*
X78680035Y-24396325D01*
X78671741Y-24428167D01*
X78648009Y-24476396D01*
X78625819Y-24531876D01*
X78607303Y-24559121D01*
X78595413Y-24583285D01*
X78558825Y-24630454D01*
X78521890Y-24684802D01*
X78502296Y-24703332D01*
X78489447Y-24719896D01*
X78439605Y-24762616D01*
X78387548Y-24811844D01*
X78369557Y-24822654D01*
X78358185Y-24832401D01*
X78295589Y-24867098D01*
X78229059Y-24907074D01*
X78214838Y-24911860D01*
X78206972Y-24916220D01*
X78132991Y-24939404D01*
X78053817Y-24966049D01*
X78044863Y-24967022D01*
X78042000Y-24967919D01*
X77958954Y-24976354D01*
X77916191Y-24981000D01*
X77039689Y-24981000D01*
X76932730Y-24963293D01*
X76808311Y-24944032D01*
X76803310Y-24941868D01*
X76794135Y-24940349D01*
X76721097Y-24906291D01*
X76652688Y-24876687D01*
X76642871Y-24869813D01*
X76626560Y-24862207D01*
X76567274Y-24816879D01*
X76511071Y-24777526D01*
X76498724Y-24764470D01*
X76479673Y-24749904D01*
X76435343Y-24697446D01*
X76392285Y-24651914D01*
X76379665Y-24631561D01*
X76360329Y-24608679D01*
X76331070Y-24553184D01*
X76301181Y-24504978D01*
X76290850Y-24476901D01*
X76274095Y-24445121D01*
X76259017Y-24390381D01*
X76241484Y-24342728D01*
X76236118Y-24307247D01*
X76224994Y-24266861D01*
X76222334Y-24216097D01*
X76215632Y-24171784D01*
X76217822Y-24130005D01*
X76215317Y-24082216D01*
X76222646Y-24037944D01*
X76224680Y-23999137D01*
X76236728Y-23952883D01*
X76245516Y-23899800D01*
X76259965Y-23863675D01*
X76268259Y-23831833D01*
X76291991Y-23783604D01*
X76314181Y-23728124D01*
X76332697Y-23700879D01*
X76344587Y-23676715D01*
X76381175Y-23629546D01*
X76418110Y-23575198D01*
X76437704Y-23556668D01*
X76450553Y-23540104D01*
X76500395Y-23497384D01*
X76552452Y-23448156D01*
X76570443Y-23437346D01*
X76581815Y-23427599D01*
X76644411Y-23392902D01*
X76710941Y-23352926D01*
X76725162Y-23348140D01*
X76733028Y-23343780D01*
X76807009Y-23320596D01*
X76886183Y-23293951D01*
X76895137Y-23292978D01*
X76898000Y-23292081D01*
X76981046Y-23283646D01*
X77023809Y-23279000D01*
X77900311Y-23279000D01*
X78007270Y-23296707D01*
G37*
G36*
X85627270Y-23296707D02*
G01*
X85751689Y-23315968D01*
X85756690Y-23318132D01*
X85765865Y-23319651D01*
X85838903Y-23353709D01*
X85907312Y-23383313D01*
X85917129Y-23390187D01*
X85933440Y-23397793D01*
X85992726Y-23443121D01*
X86048929Y-23482474D01*
X86061276Y-23495530D01*
X86080327Y-23510096D01*
X86124657Y-23562554D01*
X86167715Y-23608086D01*
X86180335Y-23628439D01*
X86199671Y-23651321D01*
X86228930Y-23706816D01*
X86258819Y-23755022D01*
X86269150Y-23783099D01*
X86285905Y-23814879D01*
X86300983Y-23869619D01*
X86318516Y-23917272D01*
X86323882Y-23952753D01*
X86335006Y-23993139D01*
X86337666Y-24043903D01*
X86344368Y-24088216D01*
X86342178Y-24129995D01*
X86344683Y-24177784D01*
X86337354Y-24222056D01*
X86335320Y-24260863D01*
X86323272Y-24307117D01*
X86314484Y-24360200D01*
X86300035Y-24396325D01*
X86291741Y-24428167D01*
X86268009Y-24476396D01*
X86245819Y-24531876D01*
X86227303Y-24559121D01*
X86215413Y-24583285D01*
X86178825Y-24630454D01*
X86141890Y-24684802D01*
X86122296Y-24703332D01*
X86109447Y-24719896D01*
X86059605Y-24762616D01*
X86007548Y-24811844D01*
X85989557Y-24822654D01*
X85978185Y-24832401D01*
X85915589Y-24867098D01*
X85849059Y-24907074D01*
X85834838Y-24911860D01*
X85826972Y-24916220D01*
X85752991Y-24939404D01*
X85673817Y-24966049D01*
X85664863Y-24967022D01*
X85662000Y-24967919D01*
X85578954Y-24976354D01*
X85536191Y-24981000D01*
X84659689Y-24981000D01*
X84552730Y-24963293D01*
X84428311Y-24944032D01*
X84423310Y-24941868D01*
X84414135Y-24940349D01*
X84341097Y-24906291D01*
X84272688Y-24876687D01*
X84262871Y-24869813D01*
X84246560Y-24862207D01*
X84187274Y-24816879D01*
X84131071Y-24777526D01*
X84118724Y-24764470D01*
X84099673Y-24749904D01*
X84055343Y-24697446D01*
X84012285Y-24651914D01*
X83999665Y-24631561D01*
X83980329Y-24608679D01*
X83951070Y-24553184D01*
X83921181Y-24504978D01*
X83910850Y-24476901D01*
X83894095Y-24445121D01*
X83879017Y-24390381D01*
X83861484Y-24342728D01*
X83856118Y-24307247D01*
X83844994Y-24266861D01*
X83842334Y-24216097D01*
X83835632Y-24171784D01*
X83837822Y-24130005D01*
X83835317Y-24082216D01*
X83842646Y-24037944D01*
X83844680Y-23999137D01*
X83856728Y-23952883D01*
X83865516Y-23899800D01*
X83879965Y-23863675D01*
X83888259Y-23831833D01*
X83911991Y-23783604D01*
X83934181Y-23728124D01*
X83952697Y-23700879D01*
X83964587Y-23676715D01*
X84001175Y-23629546D01*
X84038110Y-23575198D01*
X84057704Y-23556668D01*
X84070553Y-23540104D01*
X84120395Y-23497384D01*
X84172452Y-23448156D01*
X84190443Y-23437346D01*
X84201815Y-23427599D01*
X84264411Y-23392902D01*
X84330941Y-23352926D01*
X84345162Y-23348140D01*
X84353028Y-23343780D01*
X84427009Y-23320596D01*
X84506183Y-23293951D01*
X84515137Y-23292978D01*
X84518000Y-23292081D01*
X84601046Y-23283646D01*
X84643809Y-23279000D01*
X85520311Y-23279000D01*
X85627270Y-23296707D01*
G37*
G36*
X81817270Y-23296707D02*
G01*
X81941689Y-23315968D01*
X81946690Y-23318132D01*
X81955865Y-23319651D01*
X82028903Y-23353709D01*
X82097312Y-23383313D01*
X82107129Y-23390187D01*
X82123440Y-23397793D01*
X82182726Y-23443121D01*
X82238929Y-23482474D01*
X82251276Y-23495530D01*
X82270327Y-23510096D01*
X82314657Y-23562554D01*
X82357715Y-23608086D01*
X82370335Y-23628439D01*
X82389671Y-23651321D01*
X82418930Y-23706816D01*
X82448819Y-23755022D01*
X82459150Y-23783099D01*
X82475905Y-23814879D01*
X82490983Y-23869619D01*
X82508516Y-23917272D01*
X82513882Y-23952753D01*
X82525006Y-23993139D01*
X82527666Y-24043903D01*
X82534368Y-24088216D01*
X82532178Y-24129995D01*
X82534683Y-24177784D01*
X82527354Y-24222056D01*
X82525320Y-24260863D01*
X82513272Y-24307117D01*
X82504484Y-24360200D01*
X82490035Y-24396325D01*
X82481741Y-24428167D01*
X82458009Y-24476396D01*
X82435819Y-24531876D01*
X82417303Y-24559121D01*
X82405413Y-24583285D01*
X82368825Y-24630454D01*
X82331890Y-24684802D01*
X82312296Y-24703332D01*
X82299447Y-24719896D01*
X82249605Y-24762616D01*
X82197548Y-24811844D01*
X82179557Y-24822654D01*
X82168185Y-24832401D01*
X82105589Y-24867098D01*
X82039059Y-24907074D01*
X82024838Y-24911860D01*
X82016972Y-24916220D01*
X81942991Y-24939404D01*
X81863817Y-24966049D01*
X81854863Y-24967022D01*
X81852000Y-24967919D01*
X81768954Y-24976354D01*
X81726191Y-24981000D01*
X80849689Y-24981000D01*
X80742730Y-24963293D01*
X80618311Y-24944032D01*
X80613310Y-24941868D01*
X80604135Y-24940349D01*
X80531097Y-24906291D01*
X80462688Y-24876687D01*
X80452871Y-24869813D01*
X80436560Y-24862207D01*
X80377274Y-24816879D01*
X80321071Y-24777526D01*
X80308724Y-24764470D01*
X80289673Y-24749904D01*
X80245343Y-24697446D01*
X80202285Y-24651914D01*
X80189665Y-24631561D01*
X80170329Y-24608679D01*
X80141070Y-24553184D01*
X80111181Y-24504978D01*
X80100850Y-24476901D01*
X80084095Y-24445121D01*
X80069017Y-24390381D01*
X80051484Y-24342728D01*
X80046118Y-24307247D01*
X80034994Y-24266861D01*
X80032334Y-24216097D01*
X80025632Y-24171784D01*
X80027822Y-24130005D01*
X80025317Y-24082216D01*
X80032646Y-24037944D01*
X80034680Y-23999137D01*
X80046728Y-23952883D01*
X80055516Y-23899800D01*
X80069965Y-23863675D01*
X80078259Y-23831833D01*
X80101991Y-23783604D01*
X80124181Y-23728124D01*
X80142697Y-23700879D01*
X80154587Y-23676715D01*
X80191175Y-23629546D01*
X80228110Y-23575198D01*
X80247704Y-23556668D01*
X80260553Y-23540104D01*
X80310395Y-23497384D01*
X80362452Y-23448156D01*
X80380443Y-23437346D01*
X80391815Y-23427599D01*
X80454411Y-23392902D01*
X80520941Y-23352926D01*
X80535162Y-23348140D01*
X80543028Y-23343780D01*
X80617009Y-23320596D01*
X80696183Y-23293951D01*
X80705137Y-23292978D01*
X80708000Y-23292081D01*
X80791046Y-23283646D01*
X80833809Y-23279000D01*
X81710311Y-23279000D01*
X81817270Y-23296707D01*
G37*
M02*
