G04 #@! TF.GenerationSoftware,KiCad,Pcbnew,5.99.0-unknown-9a82bc3~100~ubuntu18.04.1*
G04 #@! TF.CreationDate,2019-11-27T20:15:29+01:00*
G04 #@! TF.ProjectId,codebagPCB,636f6465-6261-4675-9043-422e6b696361,rev?*
G04 #@! TF.SameCoordinates,Original*
G04 #@! TF.FileFunction,Copper,L1,Top*
G04 #@! TF.FilePolarity,Positive*
%FSLAX46Y46*%
G04 Gerber Fmt 4.6, Leading zero omitted, Abs format (unit mm)*
G04 Created by KiCad (PCBNEW 5.99.0-unknown-9a82bc3~100~ubuntu18.04.1) date 2019-11-27 20:15:29*
%MOMM*%
%LPD*%
G04 APERTURE LIST*
%ADD10R,1.600000X1.600000*%
%ADD11R,5.000000X5.000000*%
%ADD12O,2.400000X1.600000*%
%ADD13C,1.800000*%
%ADD14C,2.000000*%
%ADD15R,1.300000X0.450000*%
%ADD16C,0.800000*%
%ADD17C,0.400000*%
%ADD18C,1.600000*%
%ADD19C,0.250000*%
G04 APERTURE END LIST*
G04 #@! TA.AperFunction,SMDPad,CuDef*
G36*
X49869671Y-34192030D02*
G01*
X49950777Y-34246223D01*
X50004970Y-34327329D01*
X50024000Y-34423000D01*
X50024000Y-35173000D01*
X50004970Y-35268671D01*
X49950777Y-35349777D01*
X49869671Y-35403970D01*
X49774000Y-35423000D01*
X48524000Y-35423000D01*
X48428329Y-35403970D01*
X48347223Y-35349777D01*
X48293030Y-35268671D01*
X48274000Y-35173000D01*
X48274000Y-34423000D01*
X48293030Y-34327329D01*
X48347223Y-34246223D01*
X48428329Y-34192030D01*
X48524000Y-34173000D01*
X49774000Y-34173000D01*
X49869671Y-34192030D01*
G37*
G04 #@! TD.AperFunction*
G04 #@! TA.AperFunction,SMDPad,CuDef*
G36*
X49869671Y-36992030D02*
G01*
X49950777Y-37046223D01*
X50004970Y-37127329D01*
X50024000Y-37223000D01*
X50024000Y-37973000D01*
X50004970Y-38068671D01*
X49950777Y-38149777D01*
X49869671Y-38203970D01*
X49774000Y-38223000D01*
X48524000Y-38223000D01*
X48428329Y-38203970D01*
X48347223Y-38149777D01*
X48293030Y-38068671D01*
X48274000Y-37973000D01*
X48274000Y-37223000D01*
X48293030Y-37127329D01*
X48347223Y-37046223D01*
X48428329Y-36992030D01*
X48524000Y-36973000D01*
X49774000Y-36973000D01*
X49869671Y-36992030D01*
G37*
G04 #@! TD.AperFunction*
D10*
X52070000Y-31750000D03*
X85090000Y-39370000D03*
X54610000Y-31750000D03*
X82550000Y-39370000D03*
X57150000Y-31750000D03*
X80010000Y-39370000D03*
X59690000Y-31750000D03*
X77470000Y-39370000D03*
X62230000Y-31750000D03*
X74930000Y-39370000D03*
X64770000Y-31750000D03*
X72390000Y-39370000D03*
X67310000Y-31750000D03*
X69850000Y-39370000D03*
X69850000Y-31750000D03*
X67310000Y-39370000D03*
X72390000Y-31750000D03*
X64770000Y-39370000D03*
X74930000Y-31750000D03*
X62230000Y-39370000D03*
X77470000Y-31750000D03*
X59690000Y-39370000D03*
X80010000Y-31750000D03*
X57150000Y-39370000D03*
X82550000Y-31750000D03*
X54610000Y-39370000D03*
X85090000Y-31750000D03*
X52070000Y-39370000D03*
D11*
X76200000Y-44450000D03*
D12*
X77470000Y-26670000D03*
X66040000Y-24130000D03*
X81280000Y-26670000D03*
X77470000Y-24130000D03*
X85090000Y-26670000D03*
X85090000Y-24130000D03*
X73660000Y-26670000D03*
X77470000Y-29210000D03*
X81280000Y-24130000D03*
X73660000Y-24130000D03*
X69850000Y-26670000D03*
X66040000Y-29210000D03*
X85090000Y-29210000D03*
D13*
X42500000Y-40070000D03*
X42500000Y-32320000D03*
D14*
X46300000Y-39920000D03*
X46300000Y-32470000D03*
D15*
X46350000Y-37495000D03*
X46350000Y-36845000D03*
X46350000Y-36195000D03*
X46350000Y-35545000D03*
X46350000Y-34895000D03*
D12*
X69850000Y-24130000D03*
X66040000Y-26670000D03*
X81280000Y-29210000D03*
D11*
X61595000Y-44450000D03*
X45720000Y-26670000D03*
X53340000Y-26670000D03*
X69215000Y-44450000D03*
X53975000Y-44450000D03*
X83820000Y-44450000D03*
X60960000Y-26670000D03*
D12*
X69850000Y-29210000D03*
X73660000Y-29210000D03*
D16*
X69850000Y-37465000D03*
X67310000Y-34925000D03*
X57150000Y-37465000D03*
D17*
X46985000Y-37495000D02*
X49500000Y-37495000D01*
X49500000Y-37495000D02*
X49530000Y-37465000D01*
X46374999Y-34919999D02*
X47320001Y-34919999D01*
X47320001Y-34919999D02*
X47325002Y-34925000D01*
X46350000Y-34895000D02*
X46374999Y-34919999D01*
X47325002Y-34925000D02*
X49530000Y-34925000D01*
X80010000Y-41910000D02*
X78740000Y-41910000D01*
X82550000Y-39370000D02*
X80010000Y-41910000D01*
X78740000Y-41910000D02*
X76200000Y-44450000D01*
X60960000Y-27940000D02*
X63500000Y-30480000D01*
X63500000Y-30480000D02*
X64135000Y-30480000D01*
X60960000Y-26670000D02*
X60960000Y-27940000D01*
X64135000Y-30480000D02*
X67945000Y-30480000D01*
X60960000Y-26670000D02*
X60960000Y-27305000D01*
X59690000Y-31750000D02*
X54610000Y-26670000D01*
X54610000Y-26670000D02*
X53340000Y-26670000D01*
X52070000Y-31750000D02*
X50870000Y-31750000D01*
X50870000Y-31750000D02*
X45790000Y-26670000D01*
X45790000Y-26670000D02*
X45720000Y-26670000D01*
D18*
X85090000Y-39370000D02*
X85090000Y-43180000D01*
X85090000Y-43180000D02*
X83820000Y-44450000D01*
D17*
X69850000Y-39370000D02*
X69850000Y-37465000D01*
X71755000Y-37465000D02*
X71050001Y-38169999D01*
X71050001Y-38169999D02*
X71050001Y-42614999D01*
X71050001Y-42614999D02*
X69215000Y-44450000D01*
X76765000Y-37465000D02*
X71755000Y-37465000D01*
X77470000Y-39370000D02*
X77470000Y-38170000D01*
X77470000Y-38170000D02*
X76765000Y-37465000D01*
D18*
X57150000Y-39370000D02*
X57150000Y-41275000D01*
X57150000Y-41275000D02*
X53975000Y-44450000D01*
X62230000Y-39370000D02*
X62230000Y-43815000D01*
X62230000Y-43815000D02*
X61595000Y-44450000D01*
D17*
X67310000Y-31750000D02*
X67310000Y-34925000D01*
X67310000Y-31115000D02*
X67945000Y-30480000D01*
X67945000Y-30480000D02*
X69215000Y-29210000D01*
X67310000Y-31750000D02*
X67310000Y-31115000D01*
X69215000Y-29210000D02*
X69850000Y-29210000D01*
X49530000Y-37465000D02*
X57120000Y-37495000D01*
D19*
X49530000Y-37070000D02*
X49530000Y-37465000D01*
D17*
X49530000Y-34925000D02*
X64740000Y-34895000D01*
D19*
X49530000Y-35320000D02*
X49530000Y-34925000D01*
D17*
X57120000Y-37495000D02*
X57150000Y-37465000D01*
X64740000Y-34895000D02*
X67310000Y-37465000D01*
X71120000Y-35560000D02*
X72390000Y-34290000D01*
X72390000Y-34290000D02*
X72390000Y-32385000D01*
X69215000Y-35560000D02*
X71120000Y-35560000D01*
X67310000Y-37465000D02*
X69215000Y-35560000D01*
X67310000Y-40005000D02*
X67310000Y-37465000D01*
X72390000Y-32385000D02*
X72390000Y-30480000D01*
X72390000Y-30480000D02*
X73660000Y-29210000D01*
M02*
