G04 #@! TF.GenerationSoftware,KiCad,Pcbnew,5.99.0-unknown-9a82bc3~100~ubuntu18.04.1*
G04 #@! TF.CreationDate,2019-11-27T20:15:29+01:00*
G04 #@! TF.ProjectId,codebagPCB,636f6465-6261-4675-9043-422e6b696361,rev?*
G04 #@! TF.SameCoordinates,Original*
G04 #@! TF.FileFunction,Copper,L2,Bot*
G04 #@! TF.FilePolarity,Positive*
%FSLAX46Y46*%
G04 Gerber Fmt 4.6, Leading zero omitted, Abs format (unit mm)*
G04 Created by KiCad (PCBNEW 5.99.0-unknown-9a82bc3~100~ubuntu18.04.1) date 2019-11-27 20:15:29*
%MOMM*%
%LPD*%
G04 APERTURE LIST*
%ADD10R,5.000000X5.000000*%
%ADD11O,2.400000X1.600000*%
%ADD12C,1.800000*%
%ADD13C,2.000000*%
%ADD14C,0.800000*%
%ADD15C,0.400000*%
%ADD16C,0.250000*%
%ADD17C,1.600000*%
G04 APERTURE END LIST*
D10*
X76200000Y-44450000D03*
D11*
X77470000Y-26670000D03*
X66040000Y-24130000D03*
X81280000Y-26670000D03*
X77470000Y-24130000D03*
X85090000Y-26670000D03*
X85090000Y-24130000D03*
X73660000Y-26670000D03*
X77470000Y-29210000D03*
X81280000Y-24130000D03*
X73660000Y-24130000D03*
X69850000Y-26670000D03*
X66040000Y-29210000D03*
X85090000Y-29210000D03*
D12*
X42500000Y-40070000D03*
X42500000Y-32320000D03*
D13*
X46300000Y-39920000D03*
X46300000Y-32470000D03*
D11*
X69850000Y-24130000D03*
X66040000Y-26670000D03*
X81280000Y-29210000D03*
D10*
X61595000Y-44450000D03*
X45720000Y-26670000D03*
X53340000Y-26670000D03*
X69215000Y-44450000D03*
X53975000Y-44450000D03*
X83820000Y-44450000D03*
X60960000Y-26670000D03*
D11*
X69850000Y-29210000D03*
X73660000Y-29210000D03*
D14*
X69850000Y-37465000D03*
X67310000Y-34925000D03*
X57150000Y-37465000D03*
D15*
X57150000Y-37465000D02*
X69850000Y-37465000D01*
X60960000Y-27305000D02*
X60960000Y-26670000D01*
X69850000Y-37465000D02*
X67310000Y-34925000D01*
D16*
X70975010Y-42689990D02*
X69215000Y-44450000D01*
D17*
X62230000Y-43815000D02*
X61595000Y-44450000D01*
M02*
